<?xml version="1.0" encoding="UTF-8" standalone="no"?>
<!DOCTYPE svg PUBLIC "-//W3C//DTD SVG 1.1//EN"
 "http://www.w3.org/Graphics/SVG/1.1/DTD/svg11.dtd">
<!-- Generated by graphviz version 12.2.1 (20241206.2353)
 -->
<!-- Title: G Pages: 1 -->
<svg width="1190pt" height="1124pt"
 viewBox="0.00 0.00 1189.68 1124.00" xmlns="http://www.w3.org/2000/svg" xmlns:xlink="http://www.w3.org/1999/xlink">
<g id="graph0" class="graph" transform="scale(1 1) rotate(0) translate(4 1120)">
<title>G</title>
<polygon fill="white" stroke="none" points="-4,4 -4,-1120 1185.68,-1120 1185.68,4 -4,4"/>
<!-- [0, 0, 0, 0] -->
<g id="node1" class="node">
<title>[0, 0, 0, 0]</title>
<ellipse fill="none" stroke="green" cx="710.84" cy="-1098" rx="50.84" ry="18"/>
<text text-anchor="middle" x="710.84" y="-1092.95" font-family="Times New Roman,serif" font-size="14.00">[0, 0, 0, 0]</text>
</g>
<!-- [0, 1, 0, 1] -->
<g id="node2" class="node">
<title>[0, 1, 0, 1]</title>
<ellipse fill="none" stroke="blue" cx="710.84" cy="-1026" rx="50.84" ry="18"/>
<text text-anchor="middle" x="710.84" y="-1020.95" font-family="Times New Roman,serif" font-size="14.00">[0, 1, 0, 1]</text>
</g>
<!-- [0, 0, 0, 0]&#45;&gt;[0, 1, 0, 1] -->
<g id="edge1" class="edge">
<title>[0, 0, 0, 0]&#45;&gt;[0, 1, 0, 1]</title>
<path fill="none" stroke="black" d="M710.84,-1079.7C710.84,-1072.41 710.84,-1063.73 710.84,-1055.54"/>
<polygon fill="black" stroke="black" points="714.34,-1055.62 710.84,-1045.62 707.34,-1055.62 714.34,-1055.62"/>
</g>
<!-- [0, 1, 1, 1] -->
<g id="node3" class="node">
<title>[0, 1, 1, 1]</title>
<ellipse fill="none" stroke="black" cx="650.84" cy="-954" rx="50.84" ry="18"/>
<text text-anchor="middle" x="650.84" y="-948.95" font-family="Times New Roman,serif" font-size="14.00">[0, 1, 1, 1]</text>
</g>
<!-- [0, 1, 0, 1]&#45;&gt;[0, 1, 1, 1] -->
<g id="edge2" class="edge">
<title>[0, 1, 0, 1]&#45;&gt;[0, 1, 1, 1]</title>
<path fill="none" stroke="black" d="M696.62,-1008.41C689.37,-999.95 680.41,-989.49 672.34,-980.08"/>
<polygon fill="black" stroke="black" points="675.11,-977.93 665.94,-972.62 669.79,-982.49 675.11,-977.93"/>
</g>
<!-- [0, 2, 0, 1] -->
<g id="node4" class="node">
<title>[0, 2, 0, 1]</title>
<ellipse fill="none" stroke="blue" cx="770.84" cy="-954" rx="50.84" ry="18"/>
<text text-anchor="middle" x="770.84" y="-948.95" font-family="Times New Roman,serif" font-size="14.00">[0, 2, 0, 1]</text>
</g>
<!-- [0, 1, 0, 1]&#45;&gt;[0, 2, 0, 1] -->
<g id="edge3" class="edge">
<title>[0, 1, 0, 1]&#45;&gt;[0, 2, 0, 1]</title>
<path fill="none" stroke="black" d="M725.06,-1008.41C732.31,-999.95 741.27,-989.49 749.34,-980.08"/>
<polygon fill="black" stroke="black" points="751.89,-982.49 755.74,-972.62 746.57,-977.93 751.89,-982.49"/>
</g>
<!-- [0, 0, 1, 0] -->
<g id="node5" class="node">
<title>[0, 0, 1, 0]</title>
<ellipse fill="none" stroke="black" cx="530.84" cy="-882" rx="50.84" ry="18"/>
<text text-anchor="middle" x="530.84" y="-876.95" font-family="Times New Roman,serif" font-size="14.00">[0, 0, 1, 0]</text>
</g>
<!-- [0, 1, 1, 1]&#45;&gt;[0, 0, 1, 0] -->
<g id="edge4" class="edge">
<title>[0, 1, 1, 1]&#45;&gt;[0, 0, 1, 0]</title>
<path fill="none" stroke="black" d="M625.39,-938.15C608.13,-928.09 585.08,-914.64 566.06,-903.54"/>
<polygon fill="black" stroke="black" points="567.96,-900.6 557.56,-898.59 564.43,-906.65 567.96,-900.6"/>
</g>
<!-- [0, 2, 1, 1] -->
<g id="node6" class="node">
<title>[0, 2, 1, 1]</title>
<ellipse fill="none" stroke="black" cx="650.84" cy="-882" rx="50.84" ry="18"/>
<text text-anchor="middle" x="650.84" y="-876.95" font-family="Times New Roman,serif" font-size="14.00">[0, 2, 1, 1]</text>
</g>
<!-- [0, 1, 1, 1]&#45;&gt;[0, 2, 1, 1] -->
<g id="edge5" class="edge">
<title>[0, 1, 1, 1]&#45;&gt;[0, 2, 1, 1]</title>
<path fill="none" stroke="black" d="M650.84,-935.7C650.84,-928.41 650.84,-919.73 650.84,-911.54"/>
<polygon fill="black" stroke="black" points="654.34,-911.62 650.84,-901.62 647.34,-911.62 654.34,-911.62"/>
</g>
<!-- [0, 1, 0, 0] -->
<g id="node7" class="node">
<title>[0, 1, 0, 0]</title>
<ellipse fill="none" stroke="black" cx="770.84" cy="-882" rx="50.84" ry="18"/>
<text text-anchor="middle" x="770.84" y="-876.95" font-family="Times New Roman,serif" font-size="14.00">[0, 1, 0, 0]</text>
</g>
<!-- [0, 2, 0, 1]&#45;&gt;[0, 1, 0, 0] -->
<g id="edge6" class="edge">
<title>[0, 2, 0, 1]&#45;&gt;[0, 1, 0, 0]</title>
<path fill="none" stroke="black" d="M770.84,-935.7C770.84,-928.41 770.84,-919.73 770.84,-911.54"/>
<polygon fill="black" stroke="black" points="774.34,-911.62 770.84,-901.62 767.34,-911.62 774.34,-911.62"/>
</g>
<!-- [1, 2, 1, 1] -->
<g id="node8" class="node">
<title>[1, 2, 1, 1]</title>
<ellipse fill="none" stroke="blue" cx="890.84" cy="-882" rx="50.84" ry="18"/>
<text text-anchor="middle" x="890.84" y="-876.95" font-family="Times New Roman,serif" font-size="14.00">[1, 2, 1, 1]</text>
</g>
<!-- [0, 2, 0, 1]&#45;&gt;[1, 2, 1, 1] -->
<g id="edge7" class="edge">
<title>[0, 2, 0, 1]&#45;&gt;[1, 2, 1, 1]</title>
<path fill="none" stroke="black" d="M796.29,-938.15C813.55,-928.09 836.6,-914.64 855.62,-903.54"/>
<polygon fill="black" stroke="black" points="857.25,-906.65 864.12,-898.59 853.72,-900.6 857.25,-906.65"/>
</g>
<!-- [0, 0, 2, 0] -->
<g id="node9" class="node">
<title>[0, 0, 2, 0]</title>
<ellipse fill="none" stroke="black" cx="530.84" cy="-810" rx="50.84" ry="18"/>
<text text-anchor="middle" x="530.84" y="-804.95" font-family="Times New Roman,serif" font-size="14.00">[0, 0, 2, 0]</text>
</g>
<!-- [0, 0, 1, 0]&#45;&gt;[0, 0, 2, 0] -->
<g id="edge8" class="edge">
<title>[0, 0, 1, 0]&#45;&gt;[0, 0, 2, 0]</title>
<path fill="none" stroke="black" d="M530.84,-863.7C530.84,-856.41 530.84,-847.73 530.84,-839.54"/>
<polygon fill="black" stroke="black" points="534.34,-839.62 530.84,-829.62 527.34,-839.62 534.34,-839.62"/>
</g>
<!-- [0, 1, 1, 0] -->
<g id="node10" class="node">
<title>[0, 1, 1, 0]</title>
<ellipse fill="none" stroke="black" cx="650.84" cy="-810" rx="50.84" ry="18"/>
<text text-anchor="middle" x="650.84" y="-804.95" font-family="Times New Roman,serif" font-size="14.00">[0, 1, 1, 0]</text>
</g>
<!-- [0, 2, 1, 1]&#45;&gt;[0, 1, 1, 0] -->
<g id="edge9" class="edge">
<title>[0, 2, 1, 1]&#45;&gt;[0, 1, 1, 0]</title>
<path fill="none" stroke="black" d="M650.84,-863.7C650.84,-856.41 650.84,-847.73 650.84,-839.54"/>
<polygon fill="black" stroke="black" points="654.34,-839.62 650.84,-829.62 647.34,-839.62 654.34,-839.62"/>
</g>
<!-- [1, 1, 1, 0] -->
<g id="node11" class="node">
<title>[1, 1, 1, 0]</title>
<ellipse fill="none" stroke="blue" cx="890.84" cy="-810" rx="50.84" ry="18"/>
<text text-anchor="middle" x="890.84" y="-804.95" font-family="Times New Roman,serif" font-size="14.00">[1, 1, 1, 0]</text>
</g>
<!-- [1, 2, 1, 1]&#45;&gt;[1, 1, 1, 0] -->
<g id="edge10" class="edge">
<title>[1, 2, 1, 1]&#45;&gt;[1, 1, 1, 0]</title>
<path fill="none" stroke="black" d="M890.84,-863.7C890.84,-856.41 890.84,-847.73 890.84,-839.54"/>
<polygon fill="black" stroke="black" points="894.34,-839.62 890.84,-829.62 887.34,-839.62 894.34,-839.62"/>
</g>
<!-- [0, 1, 2, 1] -->
<g id="node12" class="node">
<title>[0, 1, 2, 1]</title>
<ellipse fill="none" stroke="black" cx="530.84" cy="-738" rx="50.84" ry="18"/>
<text text-anchor="middle" x="530.84" y="-732.95" font-family="Times New Roman,serif" font-size="14.00">[0, 1, 2, 1]</text>
</g>
<!-- [0, 0, 2, 0]&#45;&gt;[0, 1, 2, 1] -->
<g id="edge11" class="edge">
<title>[0, 0, 2, 0]&#45;&gt;[0, 1, 2, 1]</title>
<path fill="none" stroke="black" d="M530.84,-791.7C530.84,-784.41 530.84,-775.73 530.84,-767.54"/>
<polygon fill="black" stroke="black" points="534.34,-767.62 530.84,-757.62 527.34,-767.62 534.34,-767.62"/>
</g>
<!-- [0, 1, 2, 0] -->
<g id="node13" class="node">
<title>[0, 1, 2, 0]</title>
<ellipse fill="none" stroke="black" cx="650.84" cy="-738" rx="50.84" ry="18"/>
<text text-anchor="middle" x="650.84" y="-732.95" font-family="Times New Roman,serif" font-size="14.00">[0, 1, 2, 0]</text>
</g>
<!-- [0, 1, 1, 0]&#45;&gt;[0, 1, 2, 0] -->
<g id="edge12" class="edge">
<title>[0, 1, 1, 0]&#45;&gt;[0, 1, 2, 0]</title>
<path fill="none" stroke="black" d="M650.84,-791.7C650.84,-784.41 650.84,-775.73 650.84,-767.54"/>
<polygon fill="black" stroke="black" points="654.34,-767.62 650.84,-757.62 647.34,-767.62 654.34,-767.62"/>
</g>
<!-- [1, 0, 1, 0] -->
<g id="node14" class="node">
<title>[1, 0, 1, 0]</title>
<ellipse fill="none" stroke="black" cx="890.84" cy="-738" rx="50.84" ry="18"/>
<text text-anchor="middle" x="890.84" y="-732.95" font-family="Times New Roman,serif" font-size="14.00">[1, 0, 1, 0]</text>
</g>
<!-- [1, 1, 1, 0]&#45;&gt;[1, 0, 1, 0] -->
<g id="edge13" class="edge">
<title>[1, 1, 1, 0]&#45;&gt;[1, 0, 1, 0]</title>
<path fill="none" stroke="black" d="M890.84,-791.7C890.84,-784.41 890.84,-775.73 890.84,-767.54"/>
<polygon fill="black" stroke="black" points="894.34,-767.62 890.84,-757.62 887.34,-767.62 894.34,-767.62"/>
</g>
<!-- [1, 1, 2, 0] -->
<g id="node15" class="node">
<title>[1, 1, 2, 0]</title>
<ellipse fill="none" stroke="blue" cx="1010.84" cy="-738" rx="50.84" ry="18"/>
<text text-anchor="middle" x="1010.84" y="-732.95" font-family="Times New Roman,serif" font-size="14.00">[1, 1, 2, 0]</text>
</g>
<!-- [1, 1, 1, 0]&#45;&gt;[1, 1, 2, 0] -->
<g id="edge14" class="edge">
<title>[1, 1, 1, 0]&#45;&gt;[1, 1, 2, 0]</title>
<path fill="none" stroke="black" d="M916.29,-794.15C933.55,-784.09 956.6,-770.64 975.62,-759.54"/>
<polygon fill="black" stroke="black" points="977.25,-762.65 984.12,-754.59 973.72,-756.6 977.25,-762.65"/>
</g>
<!-- [0, 2, 2, 2] -->
<g id="node16" class="node">
<title>[0, 2, 2, 2]</title>
<ellipse fill="none" stroke="black" cx="530.84" cy="-666" rx="50.84" ry="18"/>
<text text-anchor="middle" x="530.84" y="-660.95" font-family="Times New Roman,serif" font-size="14.00">[0, 2, 2, 2]</text>
</g>
<!-- [0, 1, 2, 1]&#45;&gt;[0, 2, 2, 2] -->
<g id="edge15" class="edge">
<title>[0, 1, 2, 1]&#45;&gt;[0, 2, 2, 2]</title>
<path fill="none" stroke="black" d="M530.84,-719.7C530.84,-712.41 530.84,-703.73 530.84,-695.54"/>
<polygon fill="black" stroke="black" points="534.34,-695.62 530.84,-685.62 527.34,-695.62 534.34,-695.62"/>
</g>
<!-- [0, 2, 2, 1] -->
<g id="node17" class="node">
<title>[0, 2, 2, 1]</title>
<ellipse fill="none" stroke="black" cx="650.84" cy="-666" rx="50.84" ry="18"/>
<text text-anchor="middle" x="650.84" y="-660.95" font-family="Times New Roman,serif" font-size="14.00">[0, 2, 2, 1]</text>
</g>
<!-- [0, 1, 2, 0]&#45;&gt;[0, 2, 2, 1] -->
<g id="edge16" class="edge">
<title>[0, 1, 2, 0]&#45;&gt;[0, 2, 2, 1]</title>
<path fill="none" stroke="black" d="M650.84,-719.7C650.84,-712.41 650.84,-703.73 650.84,-695.54"/>
<polygon fill="black" stroke="black" points="654.34,-695.62 650.84,-685.62 647.34,-695.62 654.34,-695.62"/>
</g>
<!-- [2, 0, 2, 0] -->
<g id="node18" class="node">
<title>[2, 0, 2, 0]</title>
<ellipse fill="none" stroke="blue" cx="770.84" cy="-666" rx="50.84" ry="18"/>
<text text-anchor="middle" x="770.84" y="-660.95" font-family="Times New Roman,serif" font-size="14.00">[2, 0, 2, 0]</text>
</g>
<!-- [1, 0, 1, 0]&#45;&gt;[2, 0, 2, 0] -->
<g id="edge17" class="edge">
<title>[1, 0, 1, 0]&#45;&gt;[2, 0, 2, 0]</title>
<path fill="none" stroke="black" d="M865.39,-722.15C848.13,-712.09 825.08,-698.64 806.06,-687.54"/>
<polygon fill="black" stroke="black" points="807.96,-684.6 797.56,-682.59 804.43,-690.65 807.96,-684.6"/>
</g>
<!-- [1, 1, 1, 1] -->
<g id="node19" class="node">
<title>[1, 1, 1, 1]</title>
<ellipse fill="none" stroke="black" cx="890.84" cy="-666" rx="50.84" ry="18"/>
<text text-anchor="middle" x="890.84" y="-660.95" font-family="Times New Roman,serif" font-size="14.00">[1, 1, 1, 1]</text>
</g>
<!-- [1, 0, 1, 0]&#45;&gt;[1, 1, 1, 1] -->
<g id="edge18" class="edge">
<title>[1, 0, 1, 0]&#45;&gt;[1, 1, 1, 1]</title>
<path fill="none" stroke="black" d="M890.84,-719.7C890.84,-712.41 890.84,-703.73 890.84,-695.54"/>
<polygon fill="black" stroke="black" points="894.34,-695.62 890.84,-685.62 887.34,-695.62 894.34,-695.62"/>
</g>
<!-- [1, 0, 2, 0] -->
<g id="node20" class="node">
<title>[1, 0, 2, 0]</title>
<ellipse fill="none" stroke="blue" cx="1010.84" cy="-666" rx="50.84" ry="18"/>
<text text-anchor="middle" x="1010.84" y="-660.95" font-family="Times New Roman,serif" font-size="14.00">[1, 0, 2, 0]</text>
</g>
<!-- [1, 1, 2, 0]&#45;&gt;[1, 0, 2, 0] -->
<g id="edge19" class="edge">
<title>[1, 1, 2, 0]&#45;&gt;[1, 0, 2, 0]</title>
<path fill="none" stroke="black" d="M1010.84,-719.7C1010.84,-712.41 1010.84,-703.73 1010.84,-695.54"/>
<polygon fill="black" stroke="black" points="1014.34,-695.62 1010.84,-685.62 1007.34,-695.62 1014.34,-695.62"/>
</g>
<!-- [1, 2, 2, 1] -->
<g id="node21" class="node">
<title>[1, 2, 2, 1]</title>
<ellipse fill="none" stroke="black" cx="1130.84" cy="-666" rx="50.84" ry="18"/>
<text text-anchor="middle" x="1130.84" y="-660.95" font-family="Times New Roman,serif" font-size="14.00">[1, 2, 2, 1]</text>
</g>
<!-- [1, 1, 2, 0]&#45;&gt;[1, 2, 2, 1] -->
<g id="edge20" class="edge">
<title>[1, 1, 2, 0]&#45;&gt;[1, 2, 2, 1]</title>
<path fill="none" stroke="black" d="M1036.29,-722.15C1053.55,-712.09 1076.6,-698.64 1095.62,-687.54"/>
<polygon fill="black" stroke="black" points="1097.25,-690.65 1104.12,-682.59 1093.72,-684.6 1097.25,-690.65"/>
</g>
<!-- [0, 2, 1, 2] -->
<g id="node22" class="node">
<title>[0, 2, 1, 2]</title>
<ellipse fill="none" stroke="black" cx="410.84" cy="-594" rx="50.84" ry="18"/>
<text text-anchor="middle" x="410.84" y="-588.95" font-family="Times New Roman,serif" font-size="14.00">[0, 2, 1, 2]</text>
</g>
<!-- [0, 2, 2, 2]&#45;&gt;[0, 2, 1, 2] -->
<g id="edge21" class="edge">
<title>[0, 2, 2, 2]&#45;&gt;[0, 2, 1, 2]</title>
<path fill="none" stroke="black" d="M505.39,-650.15C488.13,-640.09 465.08,-626.64 446.06,-615.54"/>
<polygon fill="black" stroke="black" points="447.96,-612.6 437.56,-610.59 444.43,-618.65 447.96,-612.6"/>
</g>
<!-- [1, 2, 2, 2] -->
<g id="node23" class="node">
<title>[1, 2, 2, 2]</title>
<ellipse fill="none" stroke="black" cx="530.84" cy="-594" rx="50.84" ry="18"/>
<text text-anchor="middle" x="530.84" y="-588.95" font-family="Times New Roman,serif" font-size="14.00">[1, 2, 2, 2]</text>
</g>
<!-- [0, 2, 2, 2]&#45;&gt;[1, 2, 2, 2] -->
<g id="edge22" class="edge">
<title>[0, 2, 2, 2]&#45;&gt;[1, 2, 2, 2]</title>
<path fill="none" stroke="black" d="M530.84,-647.7C530.84,-640.41 530.84,-631.73 530.84,-623.54"/>
<polygon fill="black" stroke="black" points="534.34,-623.62 530.84,-613.62 527.34,-623.62 534.34,-623.62"/>
</g>
<!-- [2, 1, 2, 1] -->
<g id="node24" class="node">
<title>[2, 1, 2, 1]</title>
<ellipse fill="none" stroke="blue" cx="770.84" cy="-594" rx="50.84" ry="18"/>
<text text-anchor="middle" x="770.84" y="-588.95" font-family="Times New Roman,serif" font-size="14.00">[2, 1, 2, 1]</text>
</g>
<!-- [2, 0, 2, 0]&#45;&gt;[2, 1, 2, 1] -->
<g id="edge23" class="edge">
<title>[2, 0, 2, 0]&#45;&gt;[2, 1, 2, 1]</title>
<path fill="none" stroke="black" d="M770.84,-647.7C770.84,-640.41 770.84,-631.73 770.84,-623.54"/>
<polygon fill="black" stroke="black" points="774.34,-623.62 770.84,-613.62 767.34,-623.62 774.34,-623.62"/>
</g>
<!-- [1, 1, 0, 1] -->
<g id="node25" class="node">
<title>[1, 1, 0, 1]</title>
<ellipse fill="none" stroke="black" cx="890.84" cy="-594" rx="50.84" ry="18"/>
<text text-anchor="middle" x="890.84" y="-588.95" font-family="Times New Roman,serif" font-size="14.00">[1, 1, 0, 1]</text>
</g>
<!-- [1, 1, 1, 1]&#45;&gt;[1, 1, 0, 1] -->
<g id="edge24" class="edge">
<title>[1, 1, 1, 1]&#45;&gt;[1, 1, 0, 1]</title>
<path fill="none" stroke="black" d="M890.84,-647.7C890.84,-640.41 890.84,-631.73 890.84,-623.54"/>
<polygon fill="black" stroke="black" points="894.34,-623.62 890.84,-613.62 887.34,-623.62 894.34,-623.62"/>
</g>
<!-- [1, 1, 2, 1] -->
<g id="node26" class="node">
<title>[1, 1, 2, 1]</title>
<ellipse fill="none" stroke="black" cx="1010.84" cy="-594" rx="50.84" ry="18"/>
<text text-anchor="middle" x="1010.84" y="-588.95" font-family="Times New Roman,serif" font-size="14.00">[1, 1, 2, 1]</text>
</g>
<!-- [1, 0, 2, 0]&#45;&gt;[1, 1, 2, 1] -->
<g id="edge25" class="edge">
<title>[1, 0, 2, 0]&#45;&gt;[1, 1, 2, 1]</title>
<path fill="none" stroke="black" d="M1010.84,-647.7C1010.84,-640.41 1010.84,-631.73 1010.84,-623.54"/>
<polygon fill="black" stroke="black" points="1014.34,-623.62 1010.84,-613.62 1007.34,-623.62 1014.34,-623.62"/>
</g>
<!-- [0, 2, 0, 2] -->
<g id="node27" class="node">
<title>[0, 2, 0, 2]</title>
<ellipse fill="none" stroke="black" cx="290.84" cy="-522" rx="50.84" ry="18"/>
<text text-anchor="middle" x="290.84" y="-516.95" font-family="Times New Roman,serif" font-size="14.00">[0, 2, 0, 2]</text>
</g>
<!-- [0, 2, 1, 2]&#45;&gt;[0, 2, 0, 2] -->
<g id="edge26" class="edge">
<title>[0, 2, 1, 2]&#45;&gt;[0, 2, 0, 2]</title>
<path fill="none" stroke="black" d="M385.39,-578.15C368.13,-568.09 345.08,-554.64 326.06,-543.54"/>
<polygon fill="black" stroke="black" points="327.96,-540.6 317.56,-538.59 324.43,-546.65 327.96,-540.6"/>
</g>
<!-- [0, 1, 1, 2] -->
<g id="node28" class="node">
<title>[0, 1, 1, 2]</title>
<ellipse fill="none" stroke="black" cx="410.84" cy="-522" rx="50.84" ry="18"/>
<text text-anchor="middle" x="410.84" y="-516.95" font-family="Times New Roman,serif" font-size="14.00">[0, 1, 1, 2]</text>
</g>
<!-- [0, 2, 1, 2]&#45;&gt;[0, 1, 1, 2] -->
<g id="edge27" class="edge">
<title>[0, 2, 1, 2]&#45;&gt;[0, 1, 1, 2]</title>
<path fill="none" stroke="black" d="M410.84,-575.7C410.84,-568.41 410.84,-559.73 410.84,-551.54"/>
<polygon fill="black" stroke="black" points="414.34,-551.62 410.84,-541.62 407.34,-551.62 414.34,-551.62"/>
</g>
<!-- [2, 2, 2, 2] -->
<g id="node29" class="node">
<title>[2, 2, 2, 2]</title>
<ellipse fill="none" stroke="red" cx="770.84" cy="-522" rx="50.84" ry="18"/>
<text text-anchor="middle" x="770.84" y="-516.95" font-family="Times New Roman,serif" font-size="14.00">[2, 2, 2, 2]</text>
</g>
<!-- [2, 1, 2, 1]&#45;&gt;[2, 2, 2, 2] -->
<g id="edge28" class="edge">
<title>[2, 1, 2, 1]&#45;&gt;[2, 2, 2, 2]</title>
<path fill="none" stroke="black" d="M770.84,-575.7C770.84,-568.41 770.84,-559.73 770.84,-551.54"/>
<polygon fill="black" stroke="black" points="774.34,-551.62 770.84,-541.62 767.34,-551.62 774.34,-551.62"/>
</g>
<!-- [1, 0, 0, 0] -->
<g id="node30" class="node">
<title>[1, 0, 0, 0]</title>
<ellipse fill="none" stroke="black" cx="890.84" cy="-522" rx="50.84" ry="18"/>
<text text-anchor="middle" x="890.84" y="-516.95" font-family="Times New Roman,serif" font-size="14.00">[1, 0, 0, 0]</text>
</g>
<!-- [1, 1, 0, 1]&#45;&gt;[1, 0, 0, 0] -->
<g id="edge29" class="edge">
<title>[1, 1, 0, 1]&#45;&gt;[1, 0, 0, 0]</title>
<path fill="none" stroke="black" d="M890.84,-575.7C890.84,-568.41 890.84,-559.73 890.84,-551.54"/>
<polygon fill="black" stroke="black" points="894.34,-551.62 890.84,-541.62 887.34,-551.62 894.34,-551.62"/>
</g>
<!-- [1, 2, 0, 1] -->
<g id="node31" class="node">
<title>[1, 2, 0, 1]</title>
<ellipse fill="none" stroke="black" cx="1010.84" cy="-522" rx="50.84" ry="18"/>
<text text-anchor="middle" x="1010.84" y="-516.95" font-family="Times New Roman,serif" font-size="14.00">[1, 2, 0, 1]</text>
</g>
<!-- [1, 1, 0, 1]&#45;&gt;[1, 2, 0, 1] -->
<g id="edge30" class="edge">
<title>[1, 1, 0, 1]&#45;&gt;[1, 2, 0, 1]</title>
<path fill="none" stroke="black" d="M916.29,-578.15C933.55,-568.09 956.6,-554.64 975.62,-543.54"/>
<polygon fill="black" stroke="black" points="977.25,-546.65 984.12,-538.59 973.72,-540.6 977.25,-546.65"/>
</g>
<!-- [0, 1, 0, 2] -->
<g id="node32" class="node">
<title>[0, 1, 0, 2]</title>
<ellipse fill="none" stroke="black" cx="170.84" cy="-450" rx="50.84" ry="18"/>
<text text-anchor="middle" x="170.84" y="-444.95" font-family="Times New Roman,serif" font-size="14.00">[0, 1, 0, 2]</text>
</g>
<!-- [0, 2, 0, 2]&#45;&gt;[0, 1, 0, 2] -->
<g id="edge31" class="edge">
<title>[0, 2, 0, 2]&#45;&gt;[0, 1, 0, 2]</title>
<path fill="none" stroke="black" d="M265.39,-506.15C248.13,-496.09 225.08,-482.64 206.06,-471.54"/>
<polygon fill="black" stroke="black" points="207.96,-468.6 197.56,-466.59 204.43,-474.65 207.96,-468.6"/>
</g>
<!-- [1, 2, 1, 2] -->
<g id="node33" class="node">
<title>[1, 2, 1, 2]</title>
<ellipse fill="none" stroke="black" cx="290.84" cy="-450" rx="50.84" ry="18"/>
<text text-anchor="middle" x="290.84" y="-444.95" font-family="Times New Roman,serif" font-size="14.00">[1, 2, 1, 2]</text>
</g>
<!-- [0, 2, 0, 2]&#45;&gt;[1, 2, 1, 2] -->
<g id="edge32" class="edge">
<title>[0, 2, 0, 2]&#45;&gt;[1, 2, 1, 2]</title>
<path fill="none" stroke="black" d="M290.84,-503.7C290.84,-496.41 290.84,-487.73 290.84,-479.54"/>
<polygon fill="black" stroke="black" points="294.34,-479.62 290.84,-469.62 287.34,-479.62 294.34,-479.62"/>
</g>
<!-- [0, 0, 1, 2] -->
<g id="node34" class="node">
<title>[0, 0, 1, 2]</title>
<ellipse fill="none" stroke="black" cx="410.84" cy="-450" rx="50.84" ry="18"/>
<text text-anchor="middle" x="410.84" y="-444.95" font-family="Times New Roman,serif" font-size="14.00">[0, 0, 1, 2]</text>
</g>
<!-- [0, 1, 1, 2]&#45;&gt;[0, 0, 1, 2] -->
<g id="edge33" class="edge">
<title>[0, 1, 1, 2]&#45;&gt;[0, 0, 1, 2]</title>
<path fill="none" stroke="black" d="M410.84,-503.7C410.84,-496.41 410.84,-487.73 410.84,-479.54"/>
<polygon fill="black" stroke="black" points="414.34,-479.62 410.84,-469.62 407.34,-479.62 414.34,-479.62"/>
</g>
<!-- [0, 1, 2, 2] -->
<g id="node35" class="node">
<title>[0, 1, 2, 2]</title>
<ellipse fill="none" stroke="black" cx="530.84" cy="-450" rx="50.84" ry="18"/>
<text text-anchor="middle" x="530.84" y="-444.95" font-family="Times New Roman,serif" font-size="14.00">[0, 1, 2, 2]</text>
</g>
<!-- [0, 1, 1, 2]&#45;&gt;[0, 1, 2, 2] -->
<g id="edge34" class="edge">
<title>[0, 1, 1, 2]&#45;&gt;[0, 1, 2, 2]</title>
<path fill="none" stroke="black" d="M436.29,-506.15C453.55,-496.09 476.6,-482.64 495.62,-471.54"/>
<polygon fill="black" stroke="black" points="497.25,-474.65 504.12,-466.59 493.72,-468.6 497.25,-474.65"/>
</g>
<!-- [2, 2, 1, 2] -->
<g id="node36" class="node">
<title>[2, 2, 1, 2]</title>
<ellipse fill="none" stroke="black" cx="770.84" cy="-450" rx="50.84" ry="18"/>
<text text-anchor="middle" x="770.84" y="-444.95" font-family="Times New Roman,serif" font-size="14.00">[2, 2, 1, 2]</text>
</g>
<!-- [2, 2, 2, 2]&#45;&gt;[2, 2, 1, 2] -->
<g id="edge35" class="edge">
<title>[2, 2, 2, 2]&#45;&gt;[2, 2, 1, 2]</title>
<path fill="none" stroke="black" d="M770.84,-503.7C770.84,-496.41 770.84,-487.73 770.84,-479.54"/>
<polygon fill="black" stroke="black" points="774.34,-479.62 770.84,-469.62 767.34,-479.62 774.34,-479.62"/>
</g>
<!-- [2, 0, 0, 0] -->
<g id="node37" class="node">
<title>[2, 0, 0, 0]</title>
<ellipse fill="none" stroke="black" cx="890.84" cy="-450" rx="50.84" ry="18"/>
<text text-anchor="middle" x="890.84" y="-444.95" font-family="Times New Roman,serif" font-size="14.00">[2, 0, 0, 0]</text>
</g>
<!-- [1, 0, 0, 0]&#45;&gt;[2, 0, 0, 0] -->
<g id="edge36" class="edge">
<title>[1, 0, 0, 0]&#45;&gt;[2, 0, 0, 0]</title>
<path fill="none" stroke="black" d="M890.84,-503.7C890.84,-496.41 890.84,-487.73 890.84,-479.54"/>
<polygon fill="black" stroke="black" points="894.34,-479.62 890.84,-469.62 887.34,-479.62 894.34,-479.62"/>
</g>
<!-- [1, 1, 0, 0] -->
<g id="node38" class="node">
<title>[1, 1, 0, 0]</title>
<ellipse fill="none" stroke="black" cx="1010.84" cy="-450" rx="50.84" ry="18"/>
<text text-anchor="middle" x="1010.84" y="-444.95" font-family="Times New Roman,serif" font-size="14.00">[1, 1, 0, 0]</text>
</g>
<!-- [1, 2, 0, 1]&#45;&gt;[1, 1, 0, 0] -->
<g id="edge37" class="edge">
<title>[1, 2, 0, 1]&#45;&gt;[1, 1, 0, 0]</title>
<path fill="none" stroke="black" d="M1010.84,-503.7C1010.84,-496.41 1010.84,-487.73 1010.84,-479.54"/>
<polygon fill="black" stroke="black" points="1014.34,-479.62 1010.84,-469.62 1007.34,-479.62 1014.34,-479.62"/>
</g>
<!-- [0, 0, 0, 2] -->
<g id="node39" class="node">
<title>[0, 0, 0, 2]</title>
<ellipse fill="none" stroke="black" cx="170.84" cy="-378" rx="50.84" ry="18"/>
<text text-anchor="middle" x="170.84" y="-372.95" font-family="Times New Roman,serif" font-size="14.00">[0, 0, 0, 2]</text>
</g>
<!-- [0, 1, 0, 2]&#45;&gt;[0, 0, 0, 2] -->
<g id="edge38" class="edge">
<title>[0, 1, 0, 2]&#45;&gt;[0, 0, 0, 2]</title>
<path fill="none" stroke="black" d="M170.84,-431.7C170.84,-424.41 170.84,-415.73 170.84,-407.54"/>
<polygon fill="black" stroke="black" points="174.34,-407.62 170.84,-397.62 167.34,-407.62 174.34,-407.62"/>
</g>
<!-- [1, 1, 1, 2] -->
<g id="node40" class="node">
<title>[1, 1, 1, 2]</title>
<ellipse fill="none" stroke="black" cx="290.84" cy="-378" rx="50.84" ry="18"/>
<text text-anchor="middle" x="290.84" y="-372.95" font-family="Times New Roman,serif" font-size="14.00">[1, 1, 1, 2]</text>
</g>
<!-- [1, 2, 1, 2]&#45;&gt;[1, 1, 1, 2] -->
<g id="edge39" class="edge">
<title>[1, 2, 1, 2]&#45;&gt;[1, 1, 1, 2]</title>
<path fill="none" stroke="black" d="M290.84,-431.7C290.84,-424.41 290.84,-415.73 290.84,-407.54"/>
<polygon fill="black" stroke="black" points="294.34,-407.62 290.84,-397.62 287.34,-407.62 294.34,-407.62"/>
</g>
<!-- [0, 0, 2, 2] -->
<g id="node41" class="node">
<title>[0, 0, 2, 2]</title>
<ellipse fill="none" stroke="black" cx="410.84" cy="-378" rx="50.84" ry="18"/>
<text text-anchor="middle" x="410.84" y="-372.95" font-family="Times New Roman,serif" font-size="14.00">[0, 0, 2, 2]</text>
</g>
<!-- [0, 0, 1, 2]&#45;&gt;[0, 0, 2, 2] -->
<g id="edge40" class="edge">
<title>[0, 0, 1, 2]&#45;&gt;[0, 0, 2, 2]</title>
<path fill="none" stroke="black" d="M410.84,-431.7C410.84,-424.41 410.84,-415.73 410.84,-407.54"/>
<polygon fill="black" stroke="black" points="414.34,-407.62 410.84,-397.62 407.34,-407.62 414.34,-407.62"/>
</g>
<!-- [0, 0, 2, 1] -->
<g id="node42" class="node">
<title>[0, 0, 2, 1]</title>
<ellipse fill="none" stroke="black" cx="530.84" cy="-378" rx="50.84" ry="18"/>
<text text-anchor="middle" x="530.84" y="-372.95" font-family="Times New Roman,serif" font-size="14.00">[0, 0, 2, 1]</text>
</g>
<!-- [0, 1, 2, 2]&#45;&gt;[0, 0, 2, 1] -->
<g id="edge41" class="edge">
<title>[0, 1, 2, 2]&#45;&gt;[0, 0, 2, 1]</title>
<path fill="none" stroke="black" d="M530.84,-431.7C530.84,-424.41 530.84,-415.73 530.84,-407.54"/>
<polygon fill="black" stroke="black" points="534.34,-407.62 530.84,-397.62 527.34,-407.62 534.34,-407.62"/>
</g>
<!-- [2, 2, 0, 2] -->
<g id="node43" class="node">
<title>[2, 2, 0, 2]</title>
<ellipse fill="none" stroke="black" cx="650.84" cy="-378" rx="50.84" ry="18"/>
<text text-anchor="middle" x="650.84" y="-372.95" font-family="Times New Roman,serif" font-size="14.00">[2, 2, 0, 2]</text>
</g>
<!-- [2, 2, 1, 2]&#45;&gt;[2, 2, 0, 2] -->
<g id="edge42" class="edge">
<title>[2, 2, 1, 2]&#45;&gt;[2, 2, 0, 2]</title>
<path fill="none" stroke="black" d="M745.39,-434.15C728.13,-424.09 705.08,-410.64 686.06,-399.54"/>
<polygon fill="black" stroke="black" points="687.96,-396.6 677.56,-394.59 684.43,-402.65 687.96,-396.6"/>
</g>
<!-- [2, 1, 1, 2] -->
<g id="node44" class="node">
<title>[2, 1, 1, 2]</title>
<ellipse fill="none" stroke="black" cx="770.84" cy="-378" rx="50.84" ry="18"/>
<text text-anchor="middle" x="770.84" y="-372.95" font-family="Times New Roman,serif" font-size="14.00">[2, 1, 1, 2]</text>
</g>
<!-- [2, 2, 1, 2]&#45;&gt;[2, 1, 1, 2] -->
<g id="edge43" class="edge">
<title>[2, 2, 1, 2]&#45;&gt;[2, 1, 1, 2]</title>
<path fill="none" stroke="black" d="M770.84,-431.7C770.84,-424.41 770.84,-415.73 770.84,-407.54"/>
<polygon fill="black" stroke="black" points="774.34,-407.62 770.84,-397.62 767.34,-407.62 774.34,-407.62"/>
</g>
<!-- [2, 1, 0, 1] -->
<g id="node45" class="node">
<title>[2, 1, 0, 1]</title>
<ellipse fill="none" stroke="black" cx="890.84" cy="-378" rx="50.84" ry="18"/>
<text text-anchor="middle" x="890.84" y="-372.95" font-family="Times New Roman,serif" font-size="14.00">[2, 1, 0, 1]</text>
</g>
<!-- [2, 0, 0, 0]&#45;&gt;[2, 1, 0, 1] -->
<g id="edge44" class="edge">
<title>[2, 0, 0, 0]&#45;&gt;[2, 1, 0, 1]</title>
<path fill="none" stroke="black" d="M890.84,-431.7C890.84,-424.41 890.84,-415.73 890.84,-407.54"/>
<polygon fill="black" stroke="black" points="894.34,-407.62 890.84,-397.62 887.34,-407.62 894.34,-407.62"/>
</g>
<!-- [1, 1, 0, 2] -->
<g id="node46" class="node">
<title>[1, 1, 0, 2]</title>
<ellipse fill="none" stroke="black" cx="170.84" cy="-306" rx="50.84" ry="18"/>
<text text-anchor="middle" x="170.84" y="-300.95" font-family="Times New Roman,serif" font-size="14.00">[1, 1, 0, 2]</text>
</g>
<!-- [1, 1, 1, 2]&#45;&gt;[1, 1, 0, 2] -->
<g id="edge45" class="edge">
<title>[1, 1, 1, 2]&#45;&gt;[1, 1, 0, 2]</title>
<path fill="none" stroke="black" d="M265.39,-362.15C248.13,-352.09 225.08,-338.64 206.06,-327.54"/>
<polygon fill="black" stroke="black" points="207.96,-324.6 197.56,-322.59 204.43,-330.65 207.96,-324.6"/>
</g>
<!-- [1, 0, 1, 2] -->
<g id="node47" class="node">
<title>[1, 0, 1, 2]</title>
<ellipse fill="none" stroke="black" cx="290.84" cy="-306" rx="50.84" ry="18"/>
<text text-anchor="middle" x="290.84" y="-300.95" font-family="Times New Roman,serif" font-size="14.00">[1, 0, 1, 2]</text>
</g>
<!-- [1, 1, 1, 2]&#45;&gt;[1, 0, 1, 2] -->
<g id="edge46" class="edge">
<title>[1, 1, 1, 2]&#45;&gt;[1, 0, 1, 2]</title>
<path fill="none" stroke="black" d="M290.84,-359.7C290.84,-352.41 290.84,-343.73 290.84,-335.54"/>
<polygon fill="black" stroke="black" points="294.34,-335.62 290.84,-325.62 287.34,-335.62 294.34,-335.62"/>
</g>
<!-- [1, 1, 2, 2] -->
<g id="node48" class="node">
<title>[1, 1, 2, 2]</title>
<ellipse fill="none" stroke="black" cx="410.84" cy="-306" rx="50.84" ry="18"/>
<text text-anchor="middle" x="410.84" y="-300.95" font-family="Times New Roman,serif" font-size="14.00">[1, 1, 2, 2]</text>
</g>
<!-- [1, 1, 1, 2]&#45;&gt;[1, 1, 2, 2] -->
<g id="edge47" class="edge">
<title>[1, 1, 1, 2]&#45;&gt;[1, 1, 2, 2]</title>
<path fill="none" stroke="black" d="M316.29,-362.15C333.55,-352.09 356.6,-338.64 375.62,-327.54"/>
<polygon fill="black" stroke="black" points="377.25,-330.65 384.12,-322.59 373.72,-324.6 377.25,-330.65"/>
</g>
<!-- [2, 1, 0, 2] -->
<g id="node49" class="node">
<title>[2, 1, 0, 2]</title>
<ellipse fill="none" stroke="black" cx="530.84" cy="-306" rx="50.84" ry="18"/>
<text text-anchor="middle" x="530.84" y="-300.95" font-family="Times New Roman,serif" font-size="14.00">[2, 1, 0, 2]</text>
</g>
<!-- [2, 2, 0, 2]&#45;&gt;[2, 1, 0, 2] -->
<g id="edge48" class="edge">
<title>[2, 2, 0, 2]&#45;&gt;[2, 1, 0, 2]</title>
<path fill="none" stroke="black" d="M625.39,-362.15C608.13,-352.09 585.08,-338.64 566.06,-327.54"/>
<polygon fill="black" stroke="black" points="567.96,-324.6 557.56,-322.59 564.43,-330.65 567.96,-324.6"/>
</g>
<!-- [2, 0, 1, 2] -->
<g id="node50" class="node">
<title>[2, 0, 1, 2]</title>
<ellipse fill="none" stroke="black" cx="650.84" cy="-306" rx="50.84" ry="18"/>
<text text-anchor="middle" x="650.84" y="-300.95" font-family="Times New Roman,serif" font-size="14.00">[2, 0, 1, 2]</text>
</g>
<!-- [2, 1, 1, 2]&#45;&gt;[2, 0, 1, 2] -->
<g id="edge49" class="edge">
<title>[2, 1, 1, 2]&#45;&gt;[2, 0, 1, 2]</title>
<path fill="none" stroke="black" d="M745.39,-362.15C728.13,-352.09 705.08,-338.64 686.06,-327.54"/>
<polygon fill="black" stroke="black" points="687.96,-324.6 677.56,-322.59 684.43,-330.65 687.96,-324.6"/>
</g>
<!-- [2, 1, 2, 2] -->
<g id="node51" class="node">
<title>[2, 1, 2, 2]</title>
<ellipse fill="none" stroke="black" cx="770.84" cy="-306" rx="50.84" ry="18"/>
<text text-anchor="middle" x="770.84" y="-300.95" font-family="Times New Roman,serif" font-size="14.00">[2, 1, 2, 2]</text>
</g>
<!-- [2, 1, 1, 2]&#45;&gt;[2, 1, 2, 2] -->
<g id="edge50" class="edge">
<title>[2, 1, 1, 2]&#45;&gt;[2, 1, 2, 2]</title>
<path fill="none" stroke="black" d="M770.84,-359.7C770.84,-352.41 770.84,-343.73 770.84,-335.54"/>
<polygon fill="black" stroke="black" points="774.34,-335.62 770.84,-325.62 767.34,-335.62 774.34,-335.62"/>
</g>
<!-- [2, 1, 1, 1] -->
<g id="node52" class="node">
<title>[2, 1, 1, 1]</title>
<ellipse fill="none" stroke="black" cx="890.84" cy="-306" rx="50.84" ry="18"/>
<text text-anchor="middle" x="890.84" y="-300.95" font-family="Times New Roman,serif" font-size="14.00">[2, 1, 1, 1]</text>
</g>
<!-- [2, 1, 0, 1]&#45;&gt;[2, 1, 1, 1] -->
<g id="edge51" class="edge">
<title>[2, 1, 0, 1]&#45;&gt;[2, 1, 1, 1]</title>
<path fill="none" stroke="black" d="M890.84,-359.7C890.84,-352.41 890.84,-343.73 890.84,-335.54"/>
<polygon fill="black" stroke="black" points="894.34,-335.62 890.84,-325.62 887.34,-335.62 894.34,-335.62"/>
</g>
<!-- [2, 2, 0, 1] -->
<g id="node53" class="node">
<title>[2, 2, 0, 1]</title>
<ellipse fill="none" stroke="black" cx="1070.84" cy="-306" rx="50.84" ry="18"/>
<text text-anchor="middle" x="1070.84" y="-300.95" font-family="Times New Roman,serif" font-size="14.00">[2, 2, 0, 1]</text>
</g>
<!-- [2, 1, 0, 1]&#45;&gt;[2, 2, 0, 1] -->
<g id="edge52" class="edge">
<title>[2, 1, 0, 1]&#45;&gt;[2, 2, 0, 1]</title>
<path fill="none" stroke="black" d="M924.27,-364C953.2,-352.75 995.22,-336.41 1026.86,-324.1"/>
<polygon fill="black" stroke="black" points="1028.12,-327.37 1036.17,-320.48 1025.58,-320.84 1028.12,-327.37"/>
</g>
<!-- [1, 0, 0, 2] -->
<g id="node54" class="node">
<title>[1, 0, 0, 2]</title>
<ellipse fill="none" stroke="black" cx="50.84" cy="-234" rx="50.84" ry="18"/>
<text text-anchor="middle" x="50.84" y="-228.95" font-family="Times New Roman,serif" font-size="14.00">[1, 0, 0, 2]</text>
</g>
<!-- [1, 1, 0, 2]&#45;&gt;[1, 0, 0, 2] -->
<g id="edge53" class="edge">
<title>[1, 1, 0, 2]&#45;&gt;[1, 0, 0, 2]</title>
<path fill="none" stroke="black" d="M145.39,-290.15C128.13,-280.09 105.08,-266.64 86.06,-255.54"/>
<polygon fill="black" stroke="black" points="87.96,-252.6 77.56,-250.59 84.43,-258.65 87.96,-252.6"/>
</g>
<!-- [1, 2, 0, 2] -->
<g id="node55" class="node">
<title>[1, 2, 0, 2]</title>
<ellipse fill="none" stroke="black" cx="170.84" cy="-234" rx="50.84" ry="18"/>
<text text-anchor="middle" x="170.84" y="-228.95" font-family="Times New Roman,serif" font-size="14.00">[1, 2, 0, 2]</text>
</g>
<!-- [1, 1, 0, 2]&#45;&gt;[1, 2, 0, 2] -->
<g id="edge54" class="edge">
<title>[1, 1, 0, 2]&#45;&gt;[1, 2, 0, 2]</title>
<path fill="none" stroke="black" d="M170.84,-287.7C170.84,-280.41 170.84,-271.73 170.84,-263.54"/>
<polygon fill="black" stroke="black" points="174.34,-263.62 170.84,-253.62 167.34,-263.62 174.34,-263.62"/>
</g>
<!-- [2, 0, 2, 2] -->
<g id="node56" class="node">
<title>[2, 0, 2, 2]</title>
<ellipse fill="none" stroke="black" cx="290.84" cy="-234" rx="50.84" ry="18"/>
<text text-anchor="middle" x="290.84" y="-228.95" font-family="Times New Roman,serif" font-size="14.00">[2, 0, 2, 2]</text>
</g>
<!-- [1, 0, 1, 2]&#45;&gt;[2, 0, 2, 2] -->
<g id="edge55" class="edge">
<title>[1, 0, 1, 2]&#45;&gt;[2, 0, 2, 2]</title>
<path fill="none" stroke="black" d="M290.84,-287.7C290.84,-280.41 290.84,-271.73 290.84,-263.54"/>
<polygon fill="black" stroke="black" points="294.34,-263.62 290.84,-253.62 287.34,-263.62 294.34,-263.62"/>
</g>
<!-- [1, 0, 2, 1] -->
<g id="node57" class="node">
<title>[1, 0, 2, 1]</title>
<ellipse fill="none" stroke="black" cx="410.84" cy="-234" rx="50.84" ry="18"/>
<text text-anchor="middle" x="410.84" y="-228.95" font-family="Times New Roman,serif" font-size="14.00">[1, 0, 2, 1]</text>
</g>
<!-- [1, 1, 2, 2]&#45;&gt;[1, 0, 2, 1] -->
<g id="edge56" class="edge">
<title>[1, 1, 2, 2]&#45;&gt;[1, 0, 2, 1]</title>
<path fill="none" stroke="black" d="M410.84,-287.7C410.84,-280.41 410.84,-271.73 410.84,-263.54"/>
<polygon fill="black" stroke="black" points="414.34,-263.62 410.84,-253.62 407.34,-263.62 414.34,-263.62"/>
</g>
<!-- [2, 0, 0, 2] -->
<g id="node58" class="node">
<title>[2, 0, 0, 2]</title>
<ellipse fill="none" stroke="black" cx="530.84" cy="-234" rx="50.84" ry="18"/>
<text text-anchor="middle" x="530.84" y="-228.95" font-family="Times New Roman,serif" font-size="14.00">[2, 0, 0, 2]</text>
</g>
<!-- [2, 1, 0, 2]&#45;&gt;[2, 0, 0, 2] -->
<g id="edge57" class="edge">
<title>[2, 1, 0, 2]&#45;&gt;[2, 0, 0, 2]</title>
<path fill="none" stroke="black" d="M530.84,-287.7C530.84,-280.41 530.84,-271.73 530.84,-263.54"/>
<polygon fill="black" stroke="black" points="534.34,-263.62 530.84,-253.62 527.34,-263.62 534.34,-263.62"/>
</g>
<!-- [2, 0, 2, 1] -->
<g id="node59" class="node">
<title>[2, 0, 2, 1]</title>
<ellipse fill="none" stroke="black" cx="740.84" cy="-234" rx="50.84" ry="18"/>
<text text-anchor="middle" x="740.84" y="-228.95" font-family="Times New Roman,serif" font-size="14.00">[2, 0, 2, 1]</text>
</g>
<!-- [2, 1, 2, 2]&#45;&gt;[2, 0, 2, 1] -->
<g id="edge58" class="edge">
<title>[2, 1, 2, 2]&#45;&gt;[2, 0, 2, 1]</title>
<path fill="none" stroke="black" d="M763.42,-287.7C760.19,-280.15 756.32,-271.12 752.7,-262.68"/>
<polygon fill="black" stroke="black" points="755.92,-261.31 748.77,-253.5 749.49,-264.07 755.92,-261.31"/>
</g>
<!-- [2, 0, 1, 0] -->
<g id="node60" class="node">
<title>[2, 0, 1, 0]</title>
<ellipse fill="none" stroke="black" cx="860.84" cy="-234" rx="50.84" ry="18"/>
<text text-anchor="middle" x="860.84" y="-228.95" font-family="Times New Roman,serif" font-size="14.00">[2, 0, 1, 0]</text>
</g>
<!-- [2, 1, 1, 1]&#45;&gt;[2, 0, 1, 0] -->
<g id="edge59" class="edge">
<title>[2, 1, 1, 1]&#45;&gt;[2, 0, 1, 0]</title>
<path fill="none" stroke="black" d="M883.42,-287.7C880.19,-280.15 876.32,-271.12 872.7,-262.68"/>
<polygon fill="black" stroke="black" points="875.92,-261.31 868.77,-253.5 869.49,-264.07 875.92,-261.31"/>
</g>
<!-- [2, 2, 1, 1] -->
<g id="node61" class="node">
<title>[2, 2, 1, 1]</title>
<ellipse fill="none" stroke="black" cx="980.84" cy="-234" rx="50.84" ry="18"/>
<text text-anchor="middle" x="980.84" y="-228.95" font-family="Times New Roman,serif" font-size="14.00">[2, 2, 1, 1]</text>
</g>
<!-- [2, 1, 1, 1]&#45;&gt;[2, 2, 1, 1] -->
<g id="edge60" class="edge">
<title>[2, 1, 1, 1]&#45;&gt;[2, 2, 1, 1]</title>
<path fill="none" stroke="black" d="M911.26,-289.12C923.23,-279.81 938.54,-267.9 951.75,-257.62"/>
<polygon fill="black" stroke="black" points="953.56,-260.65 959.3,-251.75 949.26,-255.13 953.56,-260.65"/>
</g>
<!-- [2, 1, 0, 0] -->
<g id="node62" class="node">
<title>[2, 1, 0, 0]</title>
<ellipse fill="none" stroke="black" cx="1100.84" cy="-234" rx="50.84" ry="18"/>
<text text-anchor="middle" x="1100.84" y="-228.95" font-family="Times New Roman,serif" font-size="14.00">[2, 1, 0, 0]</text>
</g>
<!-- [2, 2, 0, 1]&#45;&gt;[2, 1, 0, 0] -->
<g id="edge61" class="edge">
<title>[2, 2, 0, 1]&#45;&gt;[2, 1, 0, 0]</title>
<path fill="none" stroke="black" d="M1078.26,-287.7C1081.49,-280.15 1085.36,-271.12 1088.98,-262.68"/>
<polygon fill="black" stroke="black" points="1092.19,-264.07 1092.91,-253.5 1085.76,-261.31 1092.19,-264.07"/>
</g>
<!-- [2, 1, 1, 0] -->
<g id="node63" class="node">
<title>[2, 1, 1, 0]</title>
<ellipse fill="none" stroke="black" cx="980.84" cy="-162" rx="50.84" ry="18"/>
<text text-anchor="middle" x="980.84" y="-156.95" font-family="Times New Roman,serif" font-size="14.00">[2, 1, 1, 0]</text>
</g>
<!-- [2, 2, 1, 1]&#45;&gt;[2, 1, 1, 0] -->
<g id="edge62" class="edge">
<title>[2, 2, 1, 1]&#45;&gt;[2, 1, 1, 0]</title>
<path fill="none" stroke="black" d="M980.84,-215.7C980.84,-208.41 980.84,-199.73 980.84,-191.54"/>
<polygon fill="black" stroke="black" points="984.34,-191.62 980.84,-181.62 977.34,-191.62 984.34,-191.62"/>
</g>
<!-- [2, 1, 2, 0] -->
<g id="node64" class="node">
<title>[2, 1, 2, 0]</title>
<ellipse fill="none" stroke="black" cx="980.84" cy="-90" rx="50.84" ry="18"/>
<text text-anchor="middle" x="980.84" y="-84.95" font-family="Times New Roman,serif" font-size="14.00">[2, 1, 2, 0]</text>
</g>
<!-- [2, 1, 1, 0]&#45;&gt;[2, 1, 2, 0] -->
<g id="edge63" class="edge">
<title>[2, 1, 1, 0]&#45;&gt;[2, 1, 2, 0]</title>
<path fill="none" stroke="black" d="M980.84,-143.7C980.84,-136.41 980.84,-127.73 980.84,-119.54"/>
<polygon fill="black" stroke="black" points="984.34,-119.62 980.84,-109.62 977.34,-119.62 984.34,-119.62"/>
</g>
<!-- [2, 2, 2, 1] -->
<g id="node65" class="node">
<title>[2, 2, 2, 1]</title>
<ellipse fill="none" stroke="black" cx="980.84" cy="-18" rx="50.84" ry="18"/>
<text text-anchor="middle" x="980.84" y="-12.95" font-family="Times New Roman,serif" font-size="14.00">[2, 2, 2, 1]</text>
</g>
<!-- [2, 1, 2, 0]&#45;&gt;[2, 2, 2, 1] -->
<g id="edge64" class="edge">
<title>[2, 1, 2, 0]&#45;&gt;[2, 2, 2, 1]</title>
<path fill="none" stroke="black" d="M980.84,-71.7C980.84,-64.41 980.84,-55.73 980.84,-47.54"/>
<polygon fill="black" stroke="black" points="984.34,-47.62 980.84,-37.62 977.34,-47.62 984.34,-47.62"/>
</g>
</g>
</svg>
