<?xml version="1.0" encoding="UTF-8" standalone="no"?>
<!DOCTYPE svg PUBLIC "-//W3C//DTD SVG 1.1//EN"
 "http://www.w3.org/Graphics/SVG/1.1/DTD/svg11.dtd">
<!-- Generated by graphviz version 12.2.1 (20241206.2353)
 -->
<!-- Title: G Pages: 1 -->
<svg width="950pt" height="1124pt"
 viewBox="0.00 0.00 949.68 1124.00" xmlns="http://www.w3.org/2000/svg" xmlns:xlink="http://www.w3.org/1999/xlink">
<g id="graph0" class="graph" transform="scale(1 1) rotate(0) translate(4 1120)">
<title>G</title>
<polygon fill="white" stroke="none" points="-4,4 -4,-1120 945.68,-1120 945.68,4 -4,4"/>
<!-- [0, 0, 0, 0] -->
<g id="node1" class="node">
<title>[0, 0, 0, 0]</title>
<ellipse fill="none" stroke="green" cx="470.84" cy="-1098" rx="50.84" ry="18"/>
<text text-anchor="middle" x="470.84" y="-1092.95" font-family="Times New Roman,serif" font-size="14.00">[0, 0, 0, 0]</text>
</g>
<!-- [0, 1, 0, 1] -->
<g id="node2" class="node">
<title>[0, 1, 0, 1]</title>
<ellipse fill="none" stroke="blue" cx="470.84" cy="-1026" rx="50.84" ry="18"/>
<text text-anchor="middle" x="470.84" y="-1020.95" font-family="Times New Roman,serif" font-size="14.00">[0, 1, 0, 1]</text>
</g>
<!-- [0, 0, 0, 0]&#45;&gt;[0, 1, 0, 1] -->
<g id="edge1" class="edge">
<title>[0, 0, 0, 0]&#45;&gt;[0, 1, 0, 1]</title>
<path fill="none" stroke="black" d="M470.84,-1079.7C470.84,-1072.41 470.84,-1063.73 470.84,-1055.54"/>
<polygon fill="black" stroke="black" points="474.34,-1055.62 470.84,-1045.62 467.34,-1055.62 474.34,-1055.62"/>
</g>
<!-- [0, 1, 1, 1] -->
<g id="node3" class="node">
<title>[0, 1, 1, 1]</title>
<ellipse fill="none" stroke="black" cx="410.84" cy="-954" rx="50.84" ry="18"/>
<text text-anchor="middle" x="410.84" y="-948.95" font-family="Times New Roman,serif" font-size="14.00">[0, 1, 1, 1]</text>
</g>
<!-- [0, 1, 0, 1]&#45;&gt;[0, 1, 1, 1] -->
<g id="edge2" class="edge">
<title>[0, 1, 0, 1]&#45;&gt;[0, 1, 1, 1]</title>
<path fill="none" stroke="black" d="M456.62,-1008.41C449.37,-999.95 440.41,-989.49 432.34,-980.08"/>
<polygon fill="black" stroke="black" points="435.11,-977.93 425.94,-972.62 429.79,-982.49 435.11,-977.93"/>
</g>
<!-- [0, 2, 0, 1] -->
<g id="node4" class="node">
<title>[0, 2, 0, 1]</title>
<ellipse fill="none" stroke="blue" cx="530.84" cy="-954" rx="50.84" ry="18"/>
<text text-anchor="middle" x="530.84" y="-948.95" font-family="Times New Roman,serif" font-size="14.00">[0, 2, 0, 1]</text>
</g>
<!-- [0, 1, 0, 1]&#45;&gt;[0, 2, 0, 1] -->
<g id="edge3" class="edge">
<title>[0, 1, 0, 1]&#45;&gt;[0, 2, 0, 1]</title>
<path fill="none" stroke="black" d="M485.06,-1008.41C492.31,-999.95 501.27,-989.49 509.34,-980.08"/>
<polygon fill="black" stroke="black" points="511.89,-982.49 515.74,-972.62 506.57,-977.93 511.89,-982.49"/>
</g>
<!-- [0, 0, 1, 0] -->
<g id="node5" class="node">
<title>[0, 0, 1, 0]</title>
<ellipse fill="none" stroke="black" cx="290.84" cy="-882" rx="50.84" ry="18"/>
<text text-anchor="middle" x="290.84" y="-876.95" font-family="Times New Roman,serif" font-size="14.00">[0, 0, 1, 0]</text>
</g>
<!-- [0, 1, 1, 1]&#45;&gt;[0, 0, 1, 0] -->
<g id="edge4" class="edge">
<title>[0, 1, 1, 1]&#45;&gt;[0, 0, 1, 0]</title>
<path fill="none" stroke="black" d="M385.39,-938.15C368.13,-928.09 345.08,-914.64 326.06,-903.54"/>
<polygon fill="black" stroke="black" points="327.96,-900.6 317.56,-898.59 324.43,-906.65 327.96,-900.6"/>
</g>
<!-- [0, 2, 1, 1] -->
<g id="node6" class="node">
<title>[0, 2, 1, 1]</title>
<ellipse fill="none" stroke="black" cx="410.84" cy="-882" rx="50.84" ry="18"/>
<text text-anchor="middle" x="410.84" y="-876.95" font-family="Times New Roman,serif" font-size="14.00">[0, 2, 1, 1]</text>
</g>
<!-- [0, 1, 1, 1]&#45;&gt;[0, 2, 1, 1] -->
<g id="edge5" class="edge">
<title>[0, 1, 1, 1]&#45;&gt;[0, 2, 1, 1]</title>
<path fill="none" stroke="black" d="M410.84,-935.7C410.84,-928.41 410.84,-919.73 410.84,-911.54"/>
<polygon fill="black" stroke="black" points="414.34,-911.62 410.84,-901.62 407.34,-911.62 414.34,-911.62"/>
</g>
<!-- [0, 1, 0, 0] -->
<g id="node7" class="node">
<title>[0, 1, 0, 0]</title>
<ellipse fill="none" stroke="black" cx="530.84" cy="-882" rx="50.84" ry="18"/>
<text text-anchor="middle" x="530.84" y="-876.95" font-family="Times New Roman,serif" font-size="14.00">[0, 1, 0, 0]</text>
</g>
<!-- [0, 2, 0, 1]&#45;&gt;[0, 1, 0, 0] -->
<g id="edge6" class="edge">
<title>[0, 2, 0, 1]&#45;&gt;[0, 1, 0, 0]</title>
<path fill="none" stroke="black" d="M530.84,-935.7C530.84,-928.41 530.84,-919.73 530.84,-911.54"/>
<polygon fill="black" stroke="black" points="534.34,-911.62 530.84,-901.62 527.34,-911.62 534.34,-911.62"/>
</g>
<!-- [1, 2, 1, 1] -->
<g id="node8" class="node">
<title>[1, 2, 1, 1]</title>
<ellipse fill="none" stroke="blue" cx="650.84" cy="-882" rx="50.84" ry="18"/>
<text text-anchor="middle" x="650.84" y="-876.95" font-family="Times New Roman,serif" font-size="14.00">[1, 2, 1, 1]</text>
</g>
<!-- [0, 2, 0, 1]&#45;&gt;[1, 2, 1, 1] -->
<g id="edge7" class="edge">
<title>[0, 2, 0, 1]&#45;&gt;[1, 2, 1, 1]</title>
<path fill="none" stroke="black" d="M556.29,-938.15C573.55,-928.09 596.6,-914.64 615.62,-903.54"/>
<polygon fill="black" stroke="black" points="617.25,-906.65 624.12,-898.59 613.72,-900.6 617.25,-906.65"/>
</g>
<!-- [0, 0, 2, 0] -->
<g id="node9" class="node">
<title>[0, 0, 2, 0]</title>
<ellipse fill="none" stroke="black" cx="290.84" cy="-810" rx="50.84" ry="18"/>
<text text-anchor="middle" x="290.84" y="-804.95" font-family="Times New Roman,serif" font-size="14.00">[0, 0, 2, 0]</text>
</g>
<!-- [0, 0, 1, 0]&#45;&gt;[0, 0, 2, 0] -->
<g id="edge8" class="edge">
<title>[0, 0, 1, 0]&#45;&gt;[0, 0, 2, 0]</title>
<path fill="none" stroke="black" d="M290.84,-863.7C290.84,-856.41 290.84,-847.73 290.84,-839.54"/>
<polygon fill="black" stroke="black" points="294.34,-839.62 290.84,-829.62 287.34,-839.62 294.34,-839.62"/>
</g>
<!-- [0, 1, 1, 0] -->
<g id="node10" class="node">
<title>[0, 1, 1, 0]</title>
<ellipse fill="none" stroke="black" cx="410.84" cy="-810" rx="50.84" ry="18"/>
<text text-anchor="middle" x="410.84" y="-804.95" font-family="Times New Roman,serif" font-size="14.00">[0, 1, 1, 0]</text>
</g>
<!-- [0, 2, 1, 1]&#45;&gt;[0, 1, 1, 0] -->
<g id="edge9" class="edge">
<title>[0, 2, 1, 1]&#45;&gt;[0, 1, 1, 0]</title>
<path fill="none" stroke="black" d="M410.84,-863.7C410.84,-856.41 410.84,-847.73 410.84,-839.54"/>
<polygon fill="black" stroke="black" points="414.34,-839.62 410.84,-829.62 407.34,-839.62 414.34,-839.62"/>
</g>
<!-- [1, 1, 1, 0] -->
<g id="node11" class="node">
<title>[1, 1, 1, 0]</title>
<ellipse fill="none" stroke="blue" cx="650.84" cy="-810" rx="50.84" ry="18"/>
<text text-anchor="middle" x="650.84" y="-804.95" font-family="Times New Roman,serif" font-size="14.00">[1, 1, 1, 0]</text>
</g>
<!-- [1, 2, 1, 1]&#45;&gt;[1, 1, 1, 0] -->
<g id="edge10" class="edge">
<title>[1, 2, 1, 1]&#45;&gt;[1, 1, 1, 0]</title>
<path fill="none" stroke="black" d="M650.84,-863.7C650.84,-856.41 650.84,-847.73 650.84,-839.54"/>
<polygon fill="black" stroke="black" points="654.34,-839.62 650.84,-829.62 647.34,-839.62 654.34,-839.62"/>
</g>
<!-- [0, 1, 2, 1] -->
<g id="node12" class="node">
<title>[0, 1, 2, 1]</title>
<ellipse fill="none" stroke="black" cx="290.84" cy="-738" rx="50.84" ry="18"/>
<text text-anchor="middle" x="290.84" y="-732.95" font-family="Times New Roman,serif" font-size="14.00">[0, 1, 2, 1]</text>
</g>
<!-- [0, 0, 2, 0]&#45;&gt;[0, 1, 2, 1] -->
<g id="edge11" class="edge">
<title>[0, 0, 2, 0]&#45;&gt;[0, 1, 2, 1]</title>
<path fill="none" stroke="black" d="M290.84,-791.7C290.84,-784.41 290.84,-775.73 290.84,-767.54"/>
<polygon fill="black" stroke="black" points="294.34,-767.62 290.84,-757.62 287.34,-767.62 294.34,-767.62"/>
</g>
<!-- [0, 1, 2, 0] -->
<g id="node13" class="node">
<title>[0, 1, 2, 0]</title>
<ellipse fill="none" stroke="black" cx="410.84" cy="-738" rx="50.84" ry="18"/>
<text text-anchor="middle" x="410.84" y="-732.95" font-family="Times New Roman,serif" font-size="14.00">[0, 1, 2, 0]</text>
</g>
<!-- [0, 1, 1, 0]&#45;&gt;[0, 1, 2, 0] -->
<g id="edge12" class="edge">
<title>[0, 1, 1, 0]&#45;&gt;[0, 1, 2, 0]</title>
<path fill="none" stroke="black" d="M410.84,-791.7C410.84,-784.41 410.84,-775.73 410.84,-767.54"/>
<polygon fill="black" stroke="black" points="414.34,-767.62 410.84,-757.62 407.34,-767.62 414.34,-767.62"/>
</g>
<!-- [1, 0, 1, 0] -->
<g id="node14" class="node">
<title>[1, 0, 1, 0]</title>
<ellipse fill="none" stroke="blue" cx="650.84" cy="-738" rx="50.84" ry="18"/>
<text text-anchor="middle" x="650.84" y="-732.95" font-family="Times New Roman,serif" font-size="14.00">[1, 0, 1, 0]</text>
</g>
<!-- [1, 1, 1, 0]&#45;&gt;[1, 0, 1, 0] -->
<g id="edge13" class="edge">
<title>[1, 1, 1, 0]&#45;&gt;[1, 0, 1, 0]</title>
<path fill="none" stroke="black" d="M650.84,-791.7C650.84,-784.41 650.84,-775.73 650.84,-767.54"/>
<polygon fill="black" stroke="black" points="654.34,-767.62 650.84,-757.62 647.34,-767.62 654.34,-767.62"/>
</g>
<!-- [1, 1, 2, 0] -->
<g id="node15" class="node">
<title>[1, 1, 2, 0]</title>
<ellipse fill="none" stroke="black" cx="770.84" cy="-738" rx="50.84" ry="18"/>
<text text-anchor="middle" x="770.84" y="-732.95" font-family="Times New Roman,serif" font-size="14.00">[1, 1, 2, 0]</text>
</g>
<!-- [1, 1, 1, 0]&#45;&gt;[1, 1, 2, 0] -->
<g id="edge14" class="edge">
<title>[1, 1, 1, 0]&#45;&gt;[1, 1, 2, 0]</title>
<path fill="none" stroke="black" d="M676.29,-794.15C693.55,-784.09 716.6,-770.64 735.62,-759.54"/>
<polygon fill="black" stroke="black" points="737.25,-762.65 744.12,-754.59 733.72,-756.6 737.25,-762.65"/>
</g>
<!-- [0, 2, 2, 2] -->
<g id="node16" class="node">
<title>[0, 2, 2, 2]</title>
<ellipse fill="none" stroke="black" cx="290.84" cy="-666" rx="50.84" ry="18"/>
<text text-anchor="middle" x="290.84" y="-660.95" font-family="Times New Roman,serif" font-size="14.00">[0, 2, 2, 2]</text>
</g>
<!-- [0, 1, 2, 1]&#45;&gt;[0, 2, 2, 2] -->
<g id="edge15" class="edge">
<title>[0, 1, 2, 1]&#45;&gt;[0, 2, 2, 2]</title>
<path fill="none" stroke="black" d="M290.84,-719.7C290.84,-712.41 290.84,-703.73 290.84,-695.54"/>
<polygon fill="black" stroke="black" points="294.34,-695.62 290.84,-685.62 287.34,-695.62 294.34,-695.62"/>
</g>
<!-- [0, 2, 2, 1] -->
<g id="node17" class="node">
<title>[0, 2, 2, 1]</title>
<ellipse fill="none" stroke="black" cx="410.84" cy="-666" rx="50.84" ry="18"/>
<text text-anchor="middle" x="410.84" y="-660.95" font-family="Times New Roman,serif" font-size="14.00">[0, 2, 2, 1]</text>
</g>
<!-- [0, 1, 2, 0]&#45;&gt;[0, 2, 2, 1] -->
<g id="edge16" class="edge">
<title>[0, 1, 2, 0]&#45;&gt;[0, 2, 2, 1]</title>
<path fill="none" stroke="black" d="M410.84,-719.7C410.84,-712.41 410.84,-703.73 410.84,-695.54"/>
<polygon fill="black" stroke="black" points="414.34,-695.62 410.84,-685.62 407.34,-695.62 414.34,-695.62"/>
</g>
<!-- [2, 0, 2, 0] -->
<g id="node18" class="node">
<title>[2, 0, 2, 0]</title>
<ellipse fill="none" stroke="blue" cx="530.84" cy="-666" rx="50.84" ry="18"/>
<text text-anchor="middle" x="530.84" y="-660.95" font-family="Times New Roman,serif" font-size="14.00">[2, 0, 2, 0]</text>
</g>
<!-- [1, 0, 1, 0]&#45;&gt;[2, 0, 2, 0] -->
<g id="edge17" class="edge">
<title>[1, 0, 1, 0]&#45;&gt;[2, 0, 2, 0]</title>
<path fill="none" stroke="black" d="M625.39,-722.15C608.13,-712.09 585.08,-698.64 566.06,-687.54"/>
<polygon fill="black" stroke="black" points="567.96,-684.6 557.56,-682.59 564.43,-690.65 567.96,-684.6"/>
</g>
<!-- [1, 1, 1, 1] -->
<g id="node19" class="node">
<title>[1, 1, 1, 1]</title>
<ellipse fill="none" stroke="black" cx="650.84" cy="-666" rx="50.84" ry="18"/>
<text text-anchor="middle" x="650.84" y="-660.95" font-family="Times New Roman,serif" font-size="14.00">[1, 1, 1, 1]</text>
</g>
<!-- [1, 0, 1, 0]&#45;&gt;[1, 1, 1, 1] -->
<g id="edge18" class="edge">
<title>[1, 0, 1, 0]&#45;&gt;[1, 1, 1, 1]</title>
<path fill="none" stroke="black" d="M650.84,-719.7C650.84,-712.41 650.84,-703.73 650.84,-695.54"/>
<polygon fill="black" stroke="black" points="654.34,-695.62 650.84,-685.62 647.34,-695.62 654.34,-695.62"/>
</g>
<!-- [1, 0, 2, 0] -->
<g id="node20" class="node">
<title>[1, 0, 2, 0]</title>
<ellipse fill="none" stroke="black" cx="770.84" cy="-666" rx="50.84" ry="18"/>
<text text-anchor="middle" x="770.84" y="-660.95" font-family="Times New Roman,serif" font-size="14.00">[1, 0, 2, 0]</text>
</g>
<!-- [1, 1, 2, 0]&#45;&gt;[1, 0, 2, 0] -->
<g id="edge19" class="edge">
<title>[1, 1, 2, 0]&#45;&gt;[1, 0, 2, 0]</title>
<path fill="none" stroke="black" d="M770.84,-719.7C770.84,-712.41 770.84,-703.73 770.84,-695.54"/>
<polygon fill="black" stroke="black" points="774.34,-695.62 770.84,-685.62 767.34,-695.62 774.34,-695.62"/>
</g>
<!-- [1, 2, 2, 1] -->
<g id="node21" class="node">
<title>[1, 2, 2, 1]</title>
<ellipse fill="none" stroke="black" cx="890.84" cy="-666" rx="50.84" ry="18"/>
<text text-anchor="middle" x="890.84" y="-660.95" font-family="Times New Roman,serif" font-size="14.00">[1, 2, 2, 1]</text>
</g>
<!-- [1, 1, 2, 0]&#45;&gt;[1, 2, 2, 1] -->
<g id="edge20" class="edge">
<title>[1, 1, 2, 0]&#45;&gt;[1, 2, 2, 1]</title>
<path fill="none" stroke="black" d="M796.29,-722.15C813.55,-712.09 836.6,-698.64 855.62,-687.54"/>
<polygon fill="black" stroke="black" points="857.25,-690.65 864.12,-682.59 853.72,-684.6 857.25,-690.65"/>
</g>
<!-- [0, 2, 1, 2] -->
<g id="node22" class="node">
<title>[0, 2, 1, 2]</title>
<ellipse fill="none" stroke="black" cx="170.84" cy="-594" rx="50.84" ry="18"/>
<text text-anchor="middle" x="170.84" y="-588.95" font-family="Times New Roman,serif" font-size="14.00">[0, 2, 1, 2]</text>
</g>
<!-- [0, 2, 2, 2]&#45;&gt;[0, 2, 1, 2] -->
<g id="edge21" class="edge">
<title>[0, 2, 2, 2]&#45;&gt;[0, 2, 1, 2]</title>
<path fill="none" stroke="black" d="M265.39,-650.15C248.13,-640.09 225.08,-626.64 206.06,-615.54"/>
<polygon fill="black" stroke="black" points="207.96,-612.6 197.56,-610.59 204.43,-618.65 207.96,-612.6"/>
</g>
<!-- [1, 2, 2, 2] -->
<g id="node23" class="node">
<title>[1, 2, 2, 2]</title>
<ellipse fill="none" stroke="black" cx="290.84" cy="-594" rx="50.84" ry="18"/>
<text text-anchor="middle" x="290.84" y="-588.95" font-family="Times New Roman,serif" font-size="14.00">[1, 2, 2, 2]</text>
</g>
<!-- [0, 2, 2, 2]&#45;&gt;[1, 2, 2, 2] -->
<g id="edge22" class="edge">
<title>[0, 2, 2, 2]&#45;&gt;[1, 2, 2, 2]</title>
<path fill="none" stroke="black" d="M290.84,-647.7C290.84,-640.41 290.84,-631.73 290.84,-623.54"/>
<polygon fill="black" stroke="black" points="294.34,-623.62 290.84,-613.62 287.34,-623.62 294.34,-623.62"/>
</g>
<!-- [2, 1, 2, 1] -->
<g id="node24" class="node">
<title>[2, 1, 2, 1]</title>
<ellipse fill="none" stroke="blue" cx="530.84" cy="-594" rx="50.84" ry="18"/>
<text text-anchor="middle" x="530.84" y="-588.95" font-family="Times New Roman,serif" font-size="14.00">[2, 1, 2, 1]</text>
</g>
<!-- [2, 0, 2, 0]&#45;&gt;[2, 1, 2, 1] -->
<g id="edge23" class="edge">
<title>[2, 0, 2, 0]&#45;&gt;[2, 1, 2, 1]</title>
<path fill="none" stroke="black" d="M530.84,-647.7C530.84,-640.41 530.84,-631.73 530.84,-623.54"/>
<polygon fill="black" stroke="black" points="534.34,-623.62 530.84,-613.62 527.34,-623.62 534.34,-623.62"/>
</g>
<!-- [1, 1, 0, 1] -->
<g id="node25" class="node">
<title>[1, 1, 0, 1]</title>
<ellipse fill="none" stroke="black" cx="650.84" cy="-594" rx="50.84" ry="18"/>
<text text-anchor="middle" x="650.84" y="-588.95" font-family="Times New Roman,serif" font-size="14.00">[1, 1, 0, 1]</text>
</g>
<!-- [1, 1, 1, 1]&#45;&gt;[1, 1, 0, 1] -->
<g id="edge24" class="edge">
<title>[1, 1, 1, 1]&#45;&gt;[1, 1, 0, 1]</title>
<path fill="none" stroke="black" d="M650.84,-647.7C650.84,-640.41 650.84,-631.73 650.84,-623.54"/>
<polygon fill="black" stroke="black" points="654.34,-623.62 650.84,-613.62 647.34,-623.62 654.34,-623.62"/>
</g>
<!-- [1, 1, 2, 1] -->
<g id="node26" class="node">
<title>[1, 1, 2, 1]</title>
<ellipse fill="none" stroke="black" cx="770.84" cy="-594" rx="50.84" ry="18"/>
<text text-anchor="middle" x="770.84" y="-588.95" font-family="Times New Roman,serif" font-size="14.00">[1, 1, 2, 1]</text>
</g>
<!-- [1, 0, 2, 0]&#45;&gt;[1, 1, 2, 1] -->
<g id="edge25" class="edge">
<title>[1, 0, 2, 0]&#45;&gt;[1, 1, 2, 1]</title>
<path fill="none" stroke="black" d="M770.84,-647.7C770.84,-640.41 770.84,-631.73 770.84,-623.54"/>
<polygon fill="black" stroke="black" points="774.34,-623.62 770.84,-613.62 767.34,-623.62 774.34,-623.62"/>
</g>
<!-- [0, 2, 0, 0] -->
<g id="node27" class="node">
<title>[0, 2, 0, 0]</title>
<ellipse fill="none" stroke="black" cx="50.84" cy="-522" rx="50.84" ry="18"/>
<text text-anchor="middle" x="50.84" y="-516.95" font-family="Times New Roman,serif" font-size="14.00">[0, 2, 0, 0]</text>
</g>
<!-- [0, 2, 1, 2]&#45;&gt;[0, 2, 0, 0] -->
<g id="edge26" class="edge">
<title>[0, 2, 1, 2]&#45;&gt;[0, 2, 0, 0]</title>
<path fill="none" stroke="black" d="M145.39,-578.15C128.13,-568.09 105.08,-554.64 86.06,-543.54"/>
<polygon fill="black" stroke="black" points="87.96,-540.6 77.56,-538.59 84.43,-546.65 87.96,-540.6"/>
</g>
<!-- [0, 1, 1, 2] -->
<g id="node28" class="node">
<title>[0, 1, 1, 2]</title>
<ellipse fill="none" stroke="black" cx="170.84" cy="-522" rx="50.84" ry="18"/>
<text text-anchor="middle" x="170.84" y="-516.95" font-family="Times New Roman,serif" font-size="14.00">[0, 1, 1, 2]</text>
</g>
<!-- [0, 2, 1, 2]&#45;&gt;[0, 1, 1, 2] -->
<g id="edge27" class="edge">
<title>[0, 2, 1, 2]&#45;&gt;[0, 1, 1, 2]</title>
<path fill="none" stroke="black" d="M170.84,-575.7C170.84,-568.41 170.84,-559.73 170.84,-551.54"/>
<polygon fill="black" stroke="black" points="174.34,-551.62 170.84,-541.62 167.34,-551.62 174.34,-551.62"/>
</g>
<!-- [2, 2, 2, 2] -->
<g id="node29" class="node">
<title>[2, 2, 2, 2]</title>
<ellipse fill="none" stroke="red" cx="530.84" cy="-522" rx="50.84" ry="18"/>
<text text-anchor="middle" x="530.84" y="-516.95" font-family="Times New Roman,serif" font-size="14.00">[2, 2, 2, 2]</text>
</g>
<!-- [2, 1, 2, 1]&#45;&gt;[2, 2, 2, 2] -->
<g id="edge28" class="edge">
<title>[2, 1, 2, 1]&#45;&gt;[2, 2, 2, 2]</title>
<path fill="none" stroke="black" d="M530.84,-575.7C530.84,-568.41 530.84,-559.73 530.84,-551.54"/>
<polygon fill="black" stroke="black" points="534.34,-551.62 530.84,-541.62 527.34,-551.62 534.34,-551.62"/>
</g>
<!-- [1, 0, 0, 0] -->
<g id="node30" class="node">
<title>[1, 0, 0, 0]</title>
<ellipse fill="none" stroke="black" cx="650.84" cy="-522" rx="50.84" ry="18"/>
<text text-anchor="middle" x="650.84" y="-516.95" font-family="Times New Roman,serif" font-size="14.00">[1, 0, 0, 0]</text>
</g>
<!-- [1, 1, 0, 1]&#45;&gt;[1, 0, 0, 0] -->
<g id="edge29" class="edge">
<title>[1, 1, 0, 1]&#45;&gt;[1, 0, 0, 0]</title>
<path fill="none" stroke="black" d="M650.84,-575.7C650.84,-568.41 650.84,-559.73 650.84,-551.54"/>
<polygon fill="black" stroke="black" points="654.34,-551.62 650.84,-541.62 647.34,-551.62 654.34,-551.62"/>
</g>
<!-- [1, 2, 0, 1] -->
<g id="node31" class="node">
<title>[1, 2, 0, 1]</title>
<ellipse fill="none" stroke="black" cx="770.84" cy="-522" rx="50.84" ry="18"/>
<text text-anchor="middle" x="770.84" y="-516.95" font-family="Times New Roman,serif" font-size="14.00">[1, 2, 0, 1]</text>
</g>
<!-- [1, 1, 0, 1]&#45;&gt;[1, 2, 0, 1] -->
<g id="edge30" class="edge">
<title>[1, 1, 0, 1]&#45;&gt;[1, 2, 0, 1]</title>
<path fill="none" stroke="black" d="M676.29,-578.15C693.55,-568.09 716.6,-554.64 735.62,-543.54"/>
<polygon fill="black" stroke="black" points="737.25,-546.65 744.12,-538.59 733.72,-540.6 737.25,-546.65"/>
</g>
<!-- [1, 2, 0, 0] -->
<g id="node32" class="node">
<title>[1, 2, 0, 0]</title>
<ellipse fill="none" stroke="black" cx="50.84" cy="-450" rx="50.84" ry="18"/>
<text text-anchor="middle" x="50.84" y="-444.95" font-family="Times New Roman,serif" font-size="14.00">[1, 2, 0, 0]</text>
</g>
<!-- [0, 2, 0, 0]&#45;&gt;[1, 2, 0, 0] -->
<g id="edge31" class="edge">
<title>[0, 2, 0, 0]&#45;&gt;[1, 2, 0, 0]</title>
<path fill="none" stroke="black" d="M50.84,-503.7C50.84,-496.41 50.84,-487.73 50.84,-479.54"/>
<polygon fill="black" stroke="black" points="54.34,-479.62 50.84,-469.62 47.34,-479.62 54.34,-479.62"/>
</g>
<!-- [0, 0, 1, 2] -->
<g id="node33" class="node">
<title>[0, 0, 1, 2]</title>
<ellipse fill="none" stroke="black" cx="170.84" cy="-450" rx="50.84" ry="18"/>
<text text-anchor="middle" x="170.84" y="-444.95" font-family="Times New Roman,serif" font-size="14.00">[0, 0, 1, 2]</text>
</g>
<!-- [0, 1, 1, 2]&#45;&gt;[0, 0, 1, 2] -->
<g id="edge32" class="edge">
<title>[0, 1, 1, 2]&#45;&gt;[0, 0, 1, 2]</title>
<path fill="none" stroke="black" d="M170.84,-503.7C170.84,-496.41 170.84,-487.73 170.84,-479.54"/>
<polygon fill="black" stroke="black" points="174.34,-479.62 170.84,-469.62 167.34,-479.62 174.34,-479.62"/>
</g>
<!-- [0, 1, 2, 2] -->
<g id="node34" class="node">
<title>[0, 1, 2, 2]</title>
<ellipse fill="none" stroke="black" cx="290.84" cy="-450" rx="50.84" ry="18"/>
<text text-anchor="middle" x="290.84" y="-444.95" font-family="Times New Roman,serif" font-size="14.00">[0, 1, 2, 2]</text>
</g>
<!-- [0, 1, 1, 2]&#45;&gt;[0, 1, 2, 2] -->
<g id="edge33" class="edge">
<title>[0, 1, 1, 2]&#45;&gt;[0, 1, 2, 2]</title>
<path fill="none" stroke="black" d="M196.29,-506.15C213.55,-496.09 236.6,-482.64 255.62,-471.54"/>
<polygon fill="black" stroke="black" points="257.25,-474.65 264.12,-466.59 253.72,-468.6 257.25,-474.65"/>
</g>
<!-- [2, 2, 1, 2] -->
<g id="node35" class="node">
<title>[2, 2, 1, 2]</title>
<ellipse fill="none" stroke="black" cx="530.84" cy="-450" rx="50.84" ry="18"/>
<text text-anchor="middle" x="530.84" y="-444.95" font-family="Times New Roman,serif" font-size="14.00">[2, 2, 1, 2]</text>
</g>
<!-- [2, 2, 2, 2]&#45;&gt;[2, 2, 1, 2] -->
<g id="edge34" class="edge">
<title>[2, 2, 2, 2]&#45;&gt;[2, 2, 1, 2]</title>
<path fill="none" stroke="black" d="M530.84,-503.7C530.84,-496.41 530.84,-487.73 530.84,-479.54"/>
<polygon fill="black" stroke="black" points="534.34,-479.62 530.84,-469.62 527.34,-479.62 534.34,-479.62"/>
</g>
<!-- [2, 0, 0, 0] -->
<g id="node36" class="node">
<title>[2, 0, 0, 0]</title>
<ellipse fill="none" stroke="black" cx="650.84" cy="-450" rx="50.84" ry="18"/>
<text text-anchor="middle" x="650.84" y="-444.95" font-family="Times New Roman,serif" font-size="14.00">[2, 0, 0, 0]</text>
</g>
<!-- [1, 0, 0, 0]&#45;&gt;[2, 0, 0, 0] -->
<g id="edge35" class="edge">
<title>[1, 0, 0, 0]&#45;&gt;[2, 0, 0, 0]</title>
<path fill="none" stroke="black" d="M650.84,-503.7C650.84,-496.41 650.84,-487.73 650.84,-479.54"/>
<polygon fill="black" stroke="black" points="654.34,-479.62 650.84,-469.62 647.34,-479.62 654.34,-479.62"/>
</g>
<!-- [1, 1, 0, 0] -->
<g id="node37" class="node">
<title>[1, 1, 0, 0]</title>
<ellipse fill="none" stroke="black" cx="770.84" cy="-450" rx="50.84" ry="18"/>
<text text-anchor="middle" x="770.84" y="-444.95" font-family="Times New Roman,serif" font-size="14.00">[1, 1, 0, 0]</text>
</g>
<!-- [1, 2, 0, 1]&#45;&gt;[1, 1, 0, 0] -->
<g id="edge36" class="edge">
<title>[1, 2, 0, 1]&#45;&gt;[1, 1, 0, 0]</title>
<path fill="none" stroke="black" d="M770.84,-503.7C770.84,-496.41 770.84,-487.73 770.84,-479.54"/>
<polygon fill="black" stroke="black" points="774.34,-479.62 770.84,-469.62 767.34,-479.62 774.34,-479.62"/>
</g>
<!-- [0, 0, 2, 2] -->
<g id="node38" class="node">
<title>[0, 0, 2, 2]</title>
<ellipse fill="none" stroke="black" cx="170.84" cy="-378" rx="50.84" ry="18"/>
<text text-anchor="middle" x="170.84" y="-372.95" font-family="Times New Roman,serif" font-size="14.00">[0, 0, 2, 2]</text>
</g>
<!-- [0, 0, 1, 2]&#45;&gt;[0, 0, 2, 2] -->
<g id="edge37" class="edge">
<title>[0, 0, 1, 2]&#45;&gt;[0, 0, 2, 2]</title>
<path fill="none" stroke="black" d="M170.84,-431.7C170.84,-424.41 170.84,-415.73 170.84,-407.54"/>
<polygon fill="black" stroke="black" points="174.34,-407.62 170.84,-397.62 167.34,-407.62 174.34,-407.62"/>
</g>
<!-- [0, 0, 2, 1] -->
<g id="node39" class="node">
<title>[0, 0, 2, 1]</title>
<ellipse fill="none" stroke="black" cx="290.84" cy="-378" rx="50.84" ry="18"/>
<text text-anchor="middle" x="290.84" y="-372.95" font-family="Times New Roman,serif" font-size="14.00">[0, 0, 2, 1]</text>
</g>
<!-- [0, 1, 2, 2]&#45;&gt;[0, 0, 2, 1] -->
<g id="edge38" class="edge">
<title>[0, 1, 2, 2]&#45;&gt;[0, 0, 2, 1]</title>
<path fill="none" stroke="black" d="M290.84,-431.7C290.84,-424.41 290.84,-415.73 290.84,-407.54"/>
<polygon fill="black" stroke="black" points="294.34,-407.62 290.84,-397.62 287.34,-407.62 294.34,-407.62"/>
</g>
<!-- [2, 2, 0, 0] -->
<g id="node40" class="node">
<title>[2, 2, 0, 0]</title>
<ellipse fill="none" stroke="black" cx="410.84" cy="-378" rx="50.84" ry="18"/>
<text text-anchor="middle" x="410.84" y="-372.95" font-family="Times New Roman,serif" font-size="14.00">[2, 2, 0, 0]</text>
</g>
<!-- [2, 2, 1, 2]&#45;&gt;[2, 2, 0, 0] -->
<g id="edge39" class="edge">
<title>[2, 2, 1, 2]&#45;&gt;[2, 2, 0, 0]</title>
<path fill="none" stroke="black" d="M505.39,-434.15C488.13,-424.09 465.08,-410.64 446.06,-399.54"/>
<polygon fill="black" stroke="black" points="447.96,-396.6 437.56,-394.59 444.43,-402.65 447.96,-396.6"/>
</g>
<!-- [2, 1, 1, 2] -->
<g id="node41" class="node">
<title>[2, 1, 1, 2]</title>
<ellipse fill="none" stroke="black" cx="530.84" cy="-378" rx="50.84" ry="18"/>
<text text-anchor="middle" x="530.84" y="-372.95" font-family="Times New Roman,serif" font-size="14.00">[2, 1, 1, 2]</text>
</g>
<!-- [2, 2, 1, 2]&#45;&gt;[2, 1, 1, 2] -->
<g id="edge40" class="edge">
<title>[2, 2, 1, 2]&#45;&gt;[2, 1, 1, 2]</title>
<path fill="none" stroke="black" d="M530.84,-431.7C530.84,-424.41 530.84,-415.73 530.84,-407.54"/>
<polygon fill="black" stroke="black" points="534.34,-407.62 530.84,-397.62 527.34,-407.62 534.34,-407.62"/>
</g>
<!-- [2, 1, 0, 1] -->
<g id="node42" class="node">
<title>[2, 1, 0, 1]</title>
<ellipse fill="none" stroke="black" cx="710.84" cy="-378" rx="50.84" ry="18"/>
<text text-anchor="middle" x="710.84" y="-372.95" font-family="Times New Roman,serif" font-size="14.00">[2, 1, 0, 1]</text>
</g>
<!-- [2, 0, 0, 0]&#45;&gt;[2, 1, 0, 1] -->
<g id="edge41" class="edge">
<title>[2, 0, 0, 0]&#45;&gt;[2, 1, 0, 1]</title>
<path fill="none" stroke="black" d="M665.06,-432.41C672.31,-423.95 681.27,-413.49 689.34,-404.08"/>
<polygon fill="black" stroke="black" points="691.89,-406.49 695.74,-396.62 686.57,-401.93 691.89,-406.49"/>
</g>
<!-- [2, 1, 0, 0] -->
<g id="node43" class="node">
<title>[2, 1, 0, 0]</title>
<ellipse fill="none" stroke="black" cx="290.84" cy="-306" rx="50.84" ry="18"/>
<text text-anchor="middle" x="290.84" y="-300.95" font-family="Times New Roman,serif" font-size="14.00">[2, 1, 0, 0]</text>
</g>
<!-- [2, 2, 0, 0]&#45;&gt;[2, 1, 0, 0] -->
<g id="edge42" class="edge">
<title>[2, 2, 0, 0]&#45;&gt;[2, 1, 0, 0]</title>
<path fill="none" stroke="black" d="M385.39,-362.15C368.13,-352.09 345.08,-338.64 326.06,-327.54"/>
<polygon fill="black" stroke="black" points="327.96,-324.6 317.56,-322.59 324.43,-330.65 327.96,-324.6"/>
</g>
<!-- [2, 2, 0, 1] -->
<g id="node44" class="node">
<title>[2, 2, 0, 1]</title>
<ellipse fill="none" stroke="black" cx="410.84" cy="-306" rx="50.84" ry="18"/>
<text text-anchor="middle" x="410.84" y="-300.95" font-family="Times New Roman,serif" font-size="14.00">[2, 2, 0, 1]</text>
</g>
<!-- [2, 2, 0, 0]&#45;&gt;[2, 2, 0, 1] -->
<g id="edge43" class="edge">
<title>[2, 2, 0, 0]&#45;&gt;[2, 2, 0, 1]</title>
<path fill="none" stroke="black" d="M410.84,-359.7C410.84,-352.41 410.84,-343.73 410.84,-335.54"/>
<polygon fill="black" stroke="black" points="414.34,-335.62 410.84,-325.62 407.34,-335.62 414.34,-335.62"/>
</g>
<!-- [2, 0, 1, 2] -->
<g id="node45" class="node">
<title>[2, 0, 1, 2]</title>
<ellipse fill="none" stroke="black" cx="530.84" cy="-306" rx="50.84" ry="18"/>
<text text-anchor="middle" x="530.84" y="-300.95" font-family="Times New Roman,serif" font-size="14.00">[2, 0, 1, 2]</text>
</g>
<!-- [2, 1, 1, 2]&#45;&gt;[2, 0, 1, 2] -->
<g id="edge44" class="edge">
<title>[2, 1, 1, 2]&#45;&gt;[2, 0, 1, 2]</title>
<path fill="none" stroke="black" d="M530.84,-359.7C530.84,-352.41 530.84,-343.73 530.84,-335.54"/>
<polygon fill="black" stroke="black" points="534.34,-335.62 530.84,-325.62 527.34,-335.62 534.34,-335.62"/>
</g>
<!-- [2, 1, 2, 2] -->
<g id="node46" class="node">
<title>[2, 1, 2, 2]</title>
<ellipse fill="none" stroke="black" cx="650.84" cy="-306" rx="50.84" ry="18"/>
<text text-anchor="middle" x="650.84" y="-300.95" font-family="Times New Roman,serif" font-size="14.00">[2, 1, 2, 2]</text>
</g>
<!-- [2, 1, 1, 2]&#45;&gt;[2, 1, 2, 2] -->
<g id="edge45" class="edge">
<title>[2, 1, 1, 2]&#45;&gt;[2, 1, 2, 2]</title>
<path fill="none" stroke="black" d="M556.29,-362.15C573.55,-352.09 596.6,-338.64 615.62,-327.54"/>
<polygon fill="black" stroke="black" points="617.25,-330.65 624.12,-322.59 613.72,-324.6 617.25,-330.65"/>
</g>
<!-- [2, 1, 1, 1] -->
<g id="node47" class="node">
<title>[2, 1, 1, 1]</title>
<ellipse fill="none" stroke="black" cx="770.84" cy="-306" rx="50.84" ry="18"/>
<text text-anchor="middle" x="770.84" y="-300.95" font-family="Times New Roman,serif" font-size="14.00">[2, 1, 1, 1]</text>
</g>
<!-- [2, 1, 0, 1]&#45;&gt;[2, 1, 1, 1] -->
<g id="edge46" class="edge">
<title>[2, 1, 0, 1]&#45;&gt;[2, 1, 1, 1]</title>
<path fill="none" stroke="black" d="M725.06,-360.41C732.31,-351.95 741.27,-341.49 749.34,-332.08"/>
<polygon fill="black" stroke="black" points="751.89,-334.49 755.74,-324.62 746.57,-329.93 751.89,-334.49"/>
</g>
<!-- [2, 2, 1, 1] -->
<g id="node48" class="node">
<title>[2, 2, 1, 1]</title>
<ellipse fill="none" stroke="black" cx="410.84" cy="-234" rx="50.84" ry="18"/>
<text text-anchor="middle" x="410.84" y="-228.95" font-family="Times New Roman,serif" font-size="14.00">[2, 2, 1, 1]</text>
</g>
<!-- [2, 2, 0, 1]&#45;&gt;[2, 2, 1, 1] -->
<g id="edge47" class="edge">
<title>[2, 2, 0, 1]&#45;&gt;[2, 2, 1, 1]</title>
<path fill="none" stroke="black" d="M410.84,-287.7C410.84,-280.41 410.84,-271.73 410.84,-263.54"/>
<polygon fill="black" stroke="black" points="414.34,-263.62 410.84,-253.62 407.34,-263.62 414.34,-263.62"/>
</g>
<!-- [2, 0, 2, 2] -->
<g id="node49" class="node">
<title>[2, 0, 2, 2]</title>
<ellipse fill="none" stroke="black" cx="530.84" cy="-234" rx="50.84" ry="18"/>
<text text-anchor="middle" x="530.84" y="-228.95" font-family="Times New Roman,serif" font-size="14.00">[2, 0, 2, 2]</text>
</g>
<!-- [2, 0, 1, 2]&#45;&gt;[2, 0, 2, 2] -->
<g id="edge48" class="edge">
<title>[2, 0, 1, 2]&#45;&gt;[2, 0, 2, 2]</title>
<path fill="none" stroke="black" d="M530.84,-287.7C530.84,-280.41 530.84,-271.73 530.84,-263.54"/>
<polygon fill="black" stroke="black" points="534.34,-263.62 530.84,-253.62 527.34,-263.62 534.34,-263.62"/>
</g>
<!-- [2, 0, 2, 1] -->
<g id="node50" class="node">
<title>[2, 0, 2, 1]</title>
<ellipse fill="none" stroke="black" cx="650.84" cy="-234" rx="50.84" ry="18"/>
<text text-anchor="middle" x="650.84" y="-228.95" font-family="Times New Roman,serif" font-size="14.00">[2, 0, 2, 1]</text>
</g>
<!-- [2, 1, 2, 2]&#45;&gt;[2, 0, 2, 1] -->
<g id="edge49" class="edge">
<title>[2, 1, 2, 2]&#45;&gt;[2, 0, 2, 1]</title>
<path fill="none" stroke="black" d="M650.84,-287.7C650.84,-280.41 650.84,-271.73 650.84,-263.54"/>
<polygon fill="black" stroke="black" points="654.34,-263.62 650.84,-253.62 647.34,-263.62 654.34,-263.62"/>
</g>
<!-- [2, 0, 1, 0] -->
<g id="node51" class="node">
<title>[2, 0, 1, 0]</title>
<ellipse fill="none" stroke="black" cx="770.84" cy="-234" rx="50.84" ry="18"/>
<text text-anchor="middle" x="770.84" y="-228.95" font-family="Times New Roman,serif" font-size="14.00">[2, 0, 1, 0]</text>
</g>
<!-- [2, 1, 1, 1]&#45;&gt;[2, 0, 1, 0] -->
<g id="edge50" class="edge">
<title>[2, 1, 1, 1]&#45;&gt;[2, 0, 1, 0]</title>
<path fill="none" stroke="black" d="M770.84,-287.7C770.84,-280.41 770.84,-271.73 770.84,-263.54"/>
<polygon fill="black" stroke="black" points="774.34,-263.62 770.84,-253.62 767.34,-263.62 774.34,-263.62"/>
</g>
<!-- [2, 1, 1, 0] -->
<g id="node52" class="node">
<title>[2, 1, 1, 0]</title>
<ellipse fill="none" stroke="black" cx="410.84" cy="-162" rx="50.84" ry="18"/>
<text text-anchor="middle" x="410.84" y="-156.95" font-family="Times New Roman,serif" font-size="14.00">[2, 1, 1, 0]</text>
</g>
<!-- [2, 2, 1, 1]&#45;&gt;[2, 1, 1, 0] -->
<g id="edge51" class="edge">
<title>[2, 2, 1, 1]&#45;&gt;[2, 1, 1, 0]</title>
<path fill="none" stroke="black" d="M410.84,-215.7C410.84,-208.41 410.84,-199.73 410.84,-191.54"/>
<polygon fill="black" stroke="black" points="414.34,-191.62 410.84,-181.62 407.34,-191.62 414.34,-191.62"/>
</g>
<!-- [1, 0, 1, 2] -->
<g id="node53" class="node">
<title>[1, 0, 1, 2]</title>
<ellipse fill="none" stroke="black" cx="530.84" cy="-162" rx="50.84" ry="18"/>
<text text-anchor="middle" x="530.84" y="-156.95" font-family="Times New Roman,serif" font-size="14.00">[1, 0, 1, 2]</text>
</g>
<!-- [2, 0, 2, 2]&#45;&gt;[1, 0, 1, 2] -->
<g id="edge52" class="edge">
<title>[2, 0, 2, 2]&#45;&gt;[1, 0, 1, 2]</title>
<path fill="none" stroke="black" d="M530.84,-215.7C530.84,-208.41 530.84,-199.73 530.84,-191.54"/>
<polygon fill="black" stroke="black" points="534.34,-191.62 530.84,-181.62 527.34,-191.62 534.34,-191.62"/>
</g>
<!-- [1, 0, 2, 1] -->
<g id="node54" class="node">
<title>[1, 0, 2, 1]</title>
<ellipse fill="none" stroke="black" cx="650.84" cy="-162" rx="50.84" ry="18"/>
<text text-anchor="middle" x="650.84" y="-156.95" font-family="Times New Roman,serif" font-size="14.00">[1, 0, 2, 1]</text>
</g>
<!-- [2, 0, 2, 1]&#45;&gt;[1, 0, 2, 1] -->
<g id="edge53" class="edge">
<title>[2, 0, 2, 1]&#45;&gt;[1, 0, 2, 1]</title>
<path fill="none" stroke="black" d="M650.84,-215.7C650.84,-208.41 650.84,-199.73 650.84,-191.54"/>
<polygon fill="black" stroke="black" points="654.34,-191.62 650.84,-181.62 647.34,-191.62 654.34,-191.62"/>
</g>
<!-- [2, 1, 2, 0] -->
<g id="node55" class="node">
<title>[2, 1, 2, 0]</title>
<ellipse fill="none" stroke="black" cx="410.84" cy="-90" rx="50.84" ry="18"/>
<text text-anchor="middle" x="410.84" y="-84.95" font-family="Times New Roman,serif" font-size="14.00">[2, 1, 2, 0]</text>
</g>
<!-- [2, 1, 1, 0]&#45;&gt;[2, 1, 2, 0] -->
<g id="edge54" class="edge">
<title>[2, 1, 1, 0]&#45;&gt;[2, 1, 2, 0]</title>
<path fill="none" stroke="black" d="M410.84,-143.7C410.84,-136.41 410.84,-127.73 410.84,-119.54"/>
<polygon fill="black" stroke="black" points="414.34,-119.62 410.84,-109.62 407.34,-119.62 414.34,-119.62"/>
</g>
<!-- [1, 1, 1, 2] -->
<g id="node56" class="node">
<title>[1, 1, 1, 2]</title>
<ellipse fill="none" stroke="black" cx="530.84" cy="-90" rx="50.84" ry="18"/>
<text text-anchor="middle" x="530.84" y="-84.95" font-family="Times New Roman,serif" font-size="14.00">[1, 1, 1, 2]</text>
</g>
<!-- [1, 0, 1, 2]&#45;&gt;[1, 1, 1, 2] -->
<g id="edge55" class="edge">
<title>[1, 0, 1, 2]&#45;&gt;[1, 1, 1, 2]</title>
<path fill="none" stroke="black" d="M530.84,-143.7C530.84,-136.41 530.84,-127.73 530.84,-119.54"/>
<polygon fill="black" stroke="black" points="534.34,-119.62 530.84,-109.62 527.34,-119.62 534.34,-119.62"/>
</g>
<!-- [1, 1, 2, 2] -->
<g id="node57" class="node">
<title>[1, 1, 2, 2]</title>
<ellipse fill="none" stroke="black" cx="650.84" cy="-90" rx="50.84" ry="18"/>
<text text-anchor="middle" x="650.84" y="-84.95" font-family="Times New Roman,serif" font-size="14.00">[1, 1, 2, 2]</text>
</g>
<!-- [1, 0, 2, 1]&#45;&gt;[1, 1, 2, 2] -->
<g id="edge56" class="edge">
<title>[1, 0, 2, 1]&#45;&gt;[1, 1, 2, 2]</title>
<path fill="none" stroke="black" d="M650.84,-143.7C650.84,-136.41 650.84,-127.73 650.84,-119.54"/>
<polygon fill="black" stroke="black" points="654.34,-119.62 650.84,-109.62 647.34,-119.62 654.34,-119.62"/>
</g>
<!-- [2, 2, 2, 1] -->
<g id="node58" class="node">
<title>[2, 2, 2, 1]</title>
<ellipse fill="none" stroke="black" cx="410.84" cy="-18" rx="50.84" ry="18"/>
<text text-anchor="middle" x="410.84" y="-12.95" font-family="Times New Roman,serif" font-size="14.00">[2, 2, 2, 1]</text>
</g>
<!-- [2, 1, 2, 0]&#45;&gt;[2, 2, 2, 1] -->
<g id="edge57" class="edge">
<title>[2, 1, 2, 0]&#45;&gt;[2, 2, 2, 1]</title>
<path fill="none" stroke="black" d="M410.84,-71.7C410.84,-64.41 410.84,-55.73 410.84,-47.54"/>
<polygon fill="black" stroke="black" points="414.34,-47.62 410.84,-37.62 407.34,-47.62 414.34,-47.62"/>
</g>
<!-- [1, 2, 1, 2] -->
<g id="node59" class="node">
<title>[1, 2, 1, 2]</title>
<ellipse fill="none" stroke="black" cx="530.84" cy="-18" rx="50.84" ry="18"/>
<text text-anchor="middle" x="530.84" y="-12.95" font-family="Times New Roman,serif" font-size="14.00">[1, 2, 1, 2]</text>
</g>
<!-- [1, 1, 1, 2]&#45;&gt;[1, 2, 1, 2] -->
<g id="edge58" class="edge">
<title>[1, 1, 1, 2]&#45;&gt;[1, 2, 1, 2]</title>
<path fill="none" stroke="black" d="M530.84,-71.7C530.84,-64.41 530.84,-55.73 530.84,-47.54"/>
<polygon fill="black" stroke="black" points="534.34,-47.62 530.84,-37.62 527.34,-47.62 534.34,-47.62"/>
</g>
</g>
</svg>
